G75*
%MOIN*%
%OFA0B0*%
%FSLAX25Y25*%
%IPPOS*%
%LPD*%
%AMOC8*
5,1,8,0,0,1.08239X$1,22.5*
%
%ADD10C,0.13398*%
%ADD11C,0.07099*%
%ADD12C,0.07887*%
%ADD13C,0.07099*%
%ADD14C,0.06800*%
%ADD15R,0.07099X0.07099*%
%ADD16C,0.06312*%
%ADD17OC8,0.06000*%
D10*
X0018937Y0017937D03*
X0018937Y0103937D03*
X0216937Y0103937D03*
X0216937Y0018937D03*
D11*
X0052937Y0084787D02*
X0052937Y0091087D01*
X0042937Y0091087D02*
X0042937Y0084787D01*
X0032937Y0084787D02*
X0032937Y0091087D01*
D12*
X0072937Y0076480D02*
X0072937Y0069394D01*
X0082937Y0069394D02*
X0082937Y0076480D01*
X0092937Y0076480D02*
X0092937Y0069394D01*
X0102937Y0069394D02*
X0102937Y0076480D01*
X0112937Y0076480D02*
X0112937Y0069394D01*
X0122937Y0069394D02*
X0122937Y0076480D01*
X0132937Y0076480D02*
X0132937Y0069394D01*
X0132937Y0046480D02*
X0132937Y0039394D01*
X0122937Y0039394D02*
X0122937Y0046480D01*
X0112937Y0046480D02*
X0112937Y0039394D01*
X0102937Y0039394D02*
X0102937Y0046480D01*
X0092937Y0046480D02*
X0092937Y0039394D01*
X0082937Y0039394D02*
X0082937Y0046480D01*
X0072937Y0046480D02*
X0072937Y0039394D01*
D13*
X0072937Y0028937D03*
X0082937Y0028937D03*
X0094937Y0028937D03*
X0104937Y0028937D03*
X0036937Y0030937D03*
X0036874Y0050937D03*
X0102937Y0085937D03*
X0112937Y0085937D03*
X0124937Y0085937D03*
X0134937Y0085937D03*
D14*
X0124937Y0099937D03*
X0112937Y0099937D03*
X0092937Y0099937D03*
X0058937Y0072937D03*
X0048937Y0072937D03*
X0048937Y0042937D03*
X0058937Y0042937D03*
X0116937Y0028937D03*
X0136937Y0028937D03*
X0144937Y0099937D03*
D15*
X0029000Y0050937D03*
X0026937Y0030937D03*
D16*
X0186937Y0053252D03*
X0186937Y0092622D03*
D17*
X0186937Y0029937D03*
X0186937Y0019937D03*
M02*
