%
M48
M72
T01C0.02756
T02C0.03150
T03C0.03200
T04C0.12598
%
T01
X92937Y72937
X186937Y53252
X186937Y92622
T02
X144937Y99937
X124937Y99937
X112937Y99937
X92937Y99937
X102937Y85937
X112937Y85937
X124937Y85937
X134937Y85937
X132937Y72937
X122937Y72937
X112937Y72937
X102937Y72937
X82937Y72937
X72937Y72937
X58937Y72937
X48937Y72937
X52937Y87937
X42937Y87937
X32937Y87937
X29000Y50937
X36874Y50937
X48937Y42937
X58937Y42937
X72937Y42937
X82937Y42937
X92937Y42937
X102937Y42937
X112937Y42937
X122937Y42937
X132937Y42937
X136937Y28937
X116937Y28937
X104937Y28937
X94937Y28937
X82937Y28937
X72937Y28937
X36937Y30937
X26937Y30937
T03
X186937Y29937
X186937Y19937
T04
X18937Y17937
X18937Y103937
X216937Y103937
X216937Y18937
M30
