G75*
%MOIN*%
%OFA0B0*%
%FSLAX25Y25*%
%IPPOS*%
%LPD*%
%AMOC8*
5,1,8,0,0,1.08239X$1,22.5*
%
%ADD10C,0.00400*%
%ADD11C,0.01600*%
%ADD12C,0.01000*%
%ADD13C,0.00500*%
%ADD14C,0.00600*%
%ADD15R,0.08000X0.02000*%
%ADD16R,0.02000X0.02500*%
%ADD17C,0.00800*%
D10*
X0030200Y0013050D02*
X0030200Y0015653D01*
X0031935Y0015653D01*
X0032962Y0015219D02*
X0032962Y0013484D01*
X0033396Y0013050D01*
X0034263Y0013050D01*
X0034697Y0013484D01*
X0034697Y0014352D01*
X0033830Y0014352D01*
X0034697Y0015219D02*
X0034263Y0015653D01*
X0033396Y0015653D01*
X0032962Y0015219D01*
X0031067Y0014352D02*
X0030200Y0014352D01*
X0030200Y0013050D02*
X0031935Y0013050D01*
X0035725Y0013050D02*
X0035725Y0015653D01*
X0037026Y0015653D01*
X0037460Y0015219D01*
X0037460Y0014785D01*
X0037026Y0014352D01*
X0035725Y0014352D01*
X0037026Y0014352D02*
X0037460Y0013918D01*
X0037460Y0013484D01*
X0037026Y0013050D01*
X0035725Y0013050D01*
X0038487Y0013050D02*
X0040222Y0014785D01*
X0040222Y0015219D01*
X0039788Y0015653D01*
X0038921Y0015653D01*
X0038487Y0015219D01*
X0041249Y0014352D02*
X0042984Y0014352D01*
X0044012Y0015219D02*
X0044012Y0013484D01*
X0045747Y0015219D01*
X0045747Y0013484D01*
X0045313Y0013050D01*
X0044445Y0013050D01*
X0044012Y0013484D01*
X0042551Y0013050D02*
X0042551Y0015653D01*
X0041249Y0014352D01*
X0040222Y0013050D02*
X0038487Y0013050D01*
X0044012Y0015219D02*
X0044445Y0015653D01*
X0045313Y0015653D01*
X0045747Y0015219D01*
X0049536Y0014785D02*
X0050838Y0014785D01*
X0051271Y0014352D01*
X0051271Y0013050D01*
X0052299Y0013050D02*
X0054034Y0013050D01*
X0053166Y0013050D02*
X0053166Y0015653D01*
X0052299Y0014785D01*
X0055061Y0014785D02*
X0055929Y0015653D01*
X0055929Y0013050D01*
X0056796Y0013050D02*
X0055061Y0013050D01*
X0057824Y0013050D02*
X0059558Y0014785D01*
X0059558Y0015219D01*
X0059125Y0015653D01*
X0058257Y0015653D01*
X0057824Y0015219D01*
X0060586Y0015219D02*
X0060586Y0014785D01*
X0061020Y0014352D01*
X0062321Y0014352D01*
X0062321Y0015219D02*
X0062321Y0013484D01*
X0061887Y0013050D01*
X0061020Y0013050D01*
X0060586Y0013484D01*
X0059558Y0013050D02*
X0057824Y0013050D01*
X0060586Y0015219D02*
X0061020Y0015653D01*
X0061887Y0015653D01*
X0062321Y0015219D01*
X0063348Y0014785D02*
X0064216Y0015653D01*
X0064216Y0013050D01*
X0065083Y0013050D02*
X0063348Y0013050D01*
X0066111Y0014352D02*
X0067845Y0014352D01*
X0068873Y0014785D02*
X0069740Y0015653D01*
X0069740Y0013050D01*
X0068873Y0013050D02*
X0070608Y0013050D01*
X0071635Y0013484D02*
X0072069Y0013050D01*
X0072936Y0013050D01*
X0073370Y0013484D01*
X0073370Y0015219D01*
X0072936Y0015653D01*
X0072069Y0015653D01*
X0071635Y0015219D01*
X0071635Y0014785D01*
X0072069Y0014352D01*
X0073370Y0014352D01*
X0077160Y0014352D02*
X0078895Y0014352D01*
X0082685Y0014352D02*
X0084420Y0014352D01*
X0084420Y0015653D02*
X0084420Y0013050D01*
X0085447Y0013484D02*
X0085881Y0013918D01*
X0087182Y0013918D01*
X0087182Y0014352D02*
X0087182Y0013050D01*
X0085881Y0013050D01*
X0085447Y0013484D01*
X0086748Y0014785D02*
X0087182Y0014352D01*
X0086748Y0014785D02*
X0085881Y0014785D01*
X0088209Y0014785D02*
X0088209Y0013050D01*
X0088209Y0013918D02*
X0089077Y0014785D01*
X0089511Y0014785D01*
X0090511Y0014785D02*
X0090511Y0013050D01*
X0090511Y0013918D02*
X0091379Y0014785D01*
X0091812Y0014785D01*
X0092813Y0014785D02*
X0093247Y0014785D01*
X0093247Y0013050D01*
X0092813Y0013050D02*
X0093681Y0013050D01*
X0094655Y0013050D02*
X0095956Y0013050D01*
X0096390Y0013484D01*
X0095956Y0013918D01*
X0095089Y0013918D01*
X0094655Y0014352D01*
X0095089Y0014785D01*
X0096390Y0014785D01*
X0097417Y0014352D02*
X0097417Y0013484D01*
X0097851Y0013050D01*
X0098718Y0013050D01*
X0099152Y0013484D01*
X0099152Y0014352D01*
X0098718Y0014785D01*
X0097851Y0014785D01*
X0097417Y0014352D01*
X0100180Y0014785D02*
X0100180Y0013050D01*
X0101914Y0013050D02*
X0101914Y0014352D01*
X0101481Y0014785D01*
X0100180Y0014785D01*
X0097206Y0018137D02*
X0094137Y0018137D01*
X0092602Y0018137D02*
X0091068Y0019672D01*
X0091835Y0019672D02*
X0089533Y0019672D01*
X0091835Y0019672D02*
X0092602Y0020439D01*
X0092602Y0021974D01*
X0091835Y0022741D01*
X0089533Y0022741D01*
X0089533Y0018137D01*
X0093247Y0016086D02*
X0093247Y0015653D01*
X0095672Y0018137D02*
X0095672Y0022741D01*
X0094137Y0021206D01*
X0082685Y0015653D02*
X0082685Y0013050D01*
X0075206Y0018137D02*
X0072137Y0018137D01*
X0075206Y0021206D01*
X0075206Y0021974D01*
X0074439Y0022741D01*
X0072904Y0022741D01*
X0072137Y0021974D01*
X0070602Y0021974D02*
X0070602Y0020439D01*
X0069835Y0019672D01*
X0067533Y0019672D01*
X0069068Y0019672D02*
X0070602Y0018137D01*
X0067533Y0018137D02*
X0067533Y0022741D01*
X0069835Y0022741D01*
X0070602Y0021974D01*
X0067412Y0015653D02*
X0066111Y0014352D01*
X0067412Y0015653D02*
X0067412Y0013050D01*
X0049536Y0013050D02*
X0049536Y0014785D01*
X0035206Y0019137D02*
X0032137Y0019137D01*
X0033672Y0019137D02*
X0033672Y0023741D01*
X0032137Y0022206D01*
X0030602Y0023741D02*
X0029068Y0023741D01*
X0029835Y0023741D02*
X0029835Y0019904D01*
X0029068Y0019137D01*
X0028300Y0019137D01*
X0027533Y0019904D01*
X0021206Y0051043D02*
X0018137Y0051043D01*
X0021206Y0054112D01*
X0021206Y0054879D01*
X0020439Y0055646D01*
X0018904Y0055646D01*
X0018137Y0054879D01*
X0016602Y0054879D02*
X0015835Y0055646D01*
X0014300Y0055646D01*
X0013533Y0054879D01*
X0013533Y0051810D01*
X0014300Y0051043D01*
X0015835Y0051043D01*
X0016602Y0051810D01*
X0089325Y0055637D02*
X0089325Y0056404D01*
X0092394Y0059474D01*
X0092394Y0060241D01*
X0089325Y0060241D01*
X0093929Y0057939D02*
X0096998Y0057939D01*
X0098533Y0057939D02*
X0101602Y0057939D01*
X0103137Y0059474D02*
X0103137Y0056404D01*
X0103904Y0055637D01*
X0105439Y0055637D01*
X0106206Y0056404D01*
X0107741Y0055637D02*
X0110810Y0055637D01*
X0109276Y0055637D02*
X0109276Y0060241D01*
X0107741Y0058706D01*
X0106206Y0059474D02*
X0105439Y0060241D01*
X0103904Y0060241D01*
X0103137Y0059474D01*
X0101602Y0060241D02*
X0101602Y0055637D01*
X0098533Y0055637D02*
X0098533Y0060241D01*
X0096231Y0060241D02*
X0093929Y0057939D01*
X0096231Y0055637D02*
X0096231Y0060241D01*
X0112345Y0057939D02*
X0115414Y0057939D01*
X0114647Y0060241D02*
X0112345Y0057939D01*
X0114647Y0055637D02*
X0114647Y0060241D01*
X0142533Y0060741D02*
X0142533Y0056904D01*
X0143300Y0056137D01*
X0144835Y0056137D01*
X0145602Y0056904D01*
X0145602Y0060741D01*
X0147137Y0059206D02*
X0148672Y0060741D01*
X0148672Y0056137D01*
X0150206Y0056137D02*
X0147137Y0056137D01*
X0151533Y0048741D02*
X0154602Y0044137D01*
X0156137Y0044137D02*
X0159206Y0044137D01*
X0157672Y0044137D02*
X0157672Y0048741D01*
X0156137Y0047206D01*
X0154602Y0048741D02*
X0151533Y0044137D01*
X0117672Y0022741D02*
X0117672Y0018137D01*
X0119206Y0018137D02*
X0116137Y0018137D01*
X0114602Y0018904D02*
X0113835Y0018137D01*
X0112300Y0018137D01*
X0111533Y0018904D01*
X0111533Y0021974D01*
X0112300Y0022741D01*
X0113835Y0022741D01*
X0114602Y0021974D01*
X0116137Y0021206D02*
X0117672Y0022741D01*
X0118108Y0014785D02*
X0118976Y0014785D01*
X0119409Y0014352D01*
X0119409Y0013050D01*
X0118108Y0013050D01*
X0117674Y0013484D01*
X0118108Y0013918D01*
X0119409Y0013918D01*
X0120437Y0014785D02*
X0120437Y0013050D01*
X0122172Y0013050D02*
X0122172Y0014352D01*
X0121738Y0014785D01*
X0120437Y0014785D01*
X0123199Y0014352D02*
X0124934Y0014352D01*
X0125962Y0014352D02*
X0127263Y0014352D01*
X0127696Y0013918D01*
X0127696Y0013484D01*
X0127263Y0013050D01*
X0125962Y0013050D01*
X0125962Y0015653D01*
X0127263Y0015653D01*
X0127696Y0015219D01*
X0127696Y0014785D01*
X0127263Y0014352D01*
X0128724Y0013484D02*
X0129158Y0013918D01*
X0130459Y0013918D01*
X0130459Y0014352D02*
X0130459Y0013050D01*
X0129158Y0013050D01*
X0128724Y0013484D01*
X0130025Y0014785D02*
X0130459Y0014352D01*
X0130025Y0014785D02*
X0129158Y0014785D01*
X0131486Y0014785D02*
X0132354Y0014785D01*
X0131920Y0015219D02*
X0131920Y0013484D01*
X0132354Y0013050D01*
X0133328Y0013484D02*
X0133328Y0014352D01*
X0133762Y0014785D01*
X0134629Y0014785D01*
X0135063Y0014352D01*
X0135063Y0013918D01*
X0133328Y0013918D01*
X0133328Y0013484D02*
X0133762Y0013050D01*
X0134629Y0013050D01*
X0136090Y0013050D02*
X0136090Y0014785D01*
X0136524Y0014785D01*
X0136958Y0014352D01*
X0137391Y0014785D01*
X0137825Y0014352D01*
X0137825Y0013050D01*
X0136958Y0013050D02*
X0136958Y0014352D01*
X0138853Y0013484D02*
X0139286Y0013918D01*
X0140587Y0013918D01*
X0140587Y0014352D02*
X0140587Y0013050D01*
X0139286Y0013050D01*
X0138853Y0013484D01*
X0140154Y0014785D02*
X0140587Y0014352D01*
X0140154Y0014785D02*
X0139286Y0014785D01*
X0141615Y0014785D02*
X0142916Y0014785D01*
X0143350Y0014352D01*
X0143350Y0013050D01*
X0141615Y0013050D02*
X0141615Y0014785D01*
X0116647Y0014352D02*
X0116647Y0013050D01*
X0115780Y0013050D02*
X0115780Y0014352D01*
X0116213Y0014785D01*
X0116647Y0014352D01*
X0115780Y0014352D02*
X0115346Y0014785D01*
X0114912Y0014785D01*
X0114912Y0013050D01*
X0113938Y0013050D02*
X0113504Y0013484D01*
X0113504Y0015219D01*
X0113071Y0014785D02*
X0113938Y0014785D01*
X0112043Y0014352D02*
X0112043Y0013050D01*
X0110742Y0013050D01*
X0110308Y0013484D01*
X0110742Y0013918D01*
X0112043Y0013918D01*
X0112043Y0014352D02*
X0111609Y0014785D01*
X0110742Y0014785D01*
X0108900Y0015653D02*
X0108900Y0013050D01*
X0108467Y0013050D02*
X0109334Y0013050D01*
X0106572Y0014352D02*
X0105704Y0014352D01*
X0105704Y0015653D02*
X0105704Y0013050D01*
X0105704Y0015653D02*
X0107439Y0015653D01*
X0108467Y0015653D02*
X0108900Y0015653D01*
X0094439Y0086137D02*
X0094439Y0090741D01*
X0092137Y0088439D01*
X0095206Y0088439D01*
X0090602Y0088439D02*
X0089835Y0087672D01*
X0087533Y0087672D01*
X0089068Y0087672D02*
X0090602Y0086137D01*
X0087533Y0086137D02*
X0087533Y0090741D01*
X0089835Y0090741D01*
X0090602Y0089974D01*
X0090602Y0088439D01*
X0084439Y0101137D02*
X0084439Y0105741D01*
X0082137Y0103439D01*
X0085206Y0103439D01*
X0080602Y0104974D02*
X0079835Y0105741D01*
X0078300Y0105741D01*
X0077533Y0104974D01*
X0077533Y0101904D01*
X0078300Y0101137D01*
X0079835Y0101137D01*
X0080602Y0101904D01*
X0057602Y0102741D02*
X0057602Y0098137D01*
X0054533Y0102741D01*
X0054533Y0098137D01*
X0052998Y0098904D02*
X0052998Y0101974D01*
X0052231Y0102741D01*
X0050696Y0102741D01*
X0049929Y0101974D01*
X0049929Y0098904D01*
X0050696Y0098137D01*
X0052231Y0098137D01*
X0052998Y0098904D01*
X0039602Y0102741D02*
X0036533Y0102741D01*
X0036533Y0098137D01*
X0036533Y0100439D02*
X0038068Y0100439D01*
X0034998Y0102741D02*
X0031929Y0102741D01*
X0031929Y0098137D01*
X0030394Y0098904D02*
X0030394Y0101974D01*
X0029627Y0102741D01*
X0028093Y0102741D01*
X0027325Y0101974D01*
X0027325Y0098904D01*
X0028093Y0098137D01*
X0029627Y0098137D01*
X0030394Y0098904D01*
X0031929Y0100439D02*
X0033464Y0100439D01*
X0141533Y0090741D02*
X0141533Y0086137D01*
X0141533Y0087672D02*
X0143835Y0087672D01*
X0144602Y0088439D01*
X0144602Y0089974D01*
X0143835Y0090741D01*
X0141533Y0090741D01*
X0143068Y0087672D02*
X0144602Y0086137D01*
X0146137Y0086904D02*
X0146904Y0086137D01*
X0148439Y0086137D01*
X0149206Y0086904D01*
X0149206Y0087672D01*
X0148439Y0088439D01*
X0147672Y0088439D01*
X0148439Y0088439D02*
X0149206Y0089206D01*
X0149206Y0089974D01*
X0148439Y0090741D01*
X0146904Y0090741D01*
X0146137Y0089974D01*
X0152300Y0101137D02*
X0153835Y0101137D01*
X0154602Y0101904D01*
X0156137Y0101904D02*
X0156904Y0101137D01*
X0158439Y0101137D01*
X0159206Y0101904D01*
X0159206Y0102672D01*
X0158439Y0103439D01*
X0157672Y0103439D01*
X0158439Y0103439D02*
X0159206Y0104206D01*
X0159206Y0104974D01*
X0158439Y0105741D01*
X0156904Y0105741D01*
X0156137Y0104974D01*
X0154602Y0104974D02*
X0153835Y0105741D01*
X0152300Y0105741D01*
X0151533Y0104974D01*
X0151533Y0101904D01*
X0152300Y0101137D01*
D11*
X0225276Y0009874D02*
X0010874Y0009874D01*
X0010874Y0111850D01*
X0225276Y0111850D01*
X0225276Y0009874D01*
D12*
X0194437Y0034937D02*
X0194680Y0034750D01*
X0194918Y0034558D01*
X0195151Y0034359D01*
X0195379Y0034155D01*
X0195602Y0033946D01*
X0195820Y0033731D01*
X0196033Y0033511D01*
X0196240Y0033286D01*
X0196442Y0033055D01*
X0196638Y0032820D01*
X0196828Y0032580D01*
X0197012Y0032336D01*
X0197190Y0032087D01*
X0197362Y0031833D01*
X0197528Y0031576D01*
X0197688Y0031315D01*
X0197841Y0031050D01*
X0197987Y0030781D01*
X0198127Y0030508D01*
X0198260Y0030233D01*
X0198386Y0029954D01*
X0198506Y0029672D01*
X0198618Y0029387D01*
X0198723Y0029100D01*
X0198822Y0028810D01*
X0198913Y0028518D01*
X0198997Y0028223D01*
X0199074Y0027927D01*
X0199144Y0027629D01*
X0199206Y0027329D01*
X0199261Y0027028D01*
X0199308Y0026726D01*
X0199348Y0026422D01*
X0199381Y0026118D01*
X0199406Y0025813D01*
X0199424Y0025507D01*
X0199434Y0025201D01*
X0199437Y0024895D01*
X0199432Y0024589D01*
X0199420Y0024283D01*
X0199400Y0023977D01*
X0199373Y0023673D01*
X0199338Y0023368D01*
X0199296Y0023065D01*
X0199247Y0022763D01*
X0199190Y0022462D01*
X0199125Y0022163D01*
X0199054Y0021865D01*
X0198975Y0021570D01*
X0198889Y0021276D01*
X0198796Y0020984D01*
X0198695Y0020695D01*
X0198588Y0020408D01*
X0198473Y0020124D01*
X0198352Y0019843D01*
X0198224Y0019565D01*
X0198089Y0019290D01*
X0197947Y0019019D01*
X0197799Y0018751D01*
X0197644Y0018487D01*
X0197483Y0018227D01*
X0197316Y0017971D01*
X0197142Y0017718D01*
X0196962Y0017471D01*
X0196776Y0017227D01*
X0196585Y0016989D01*
X0196387Y0016755D01*
X0196184Y0016526D01*
X0195975Y0016302D01*
X0195761Y0016083D01*
X0195541Y0015870D01*
X0195317Y0015662D01*
X0195087Y0015459D01*
X0194853Y0015263D01*
X0194613Y0015072D01*
X0194370Y0014887D01*
X0194121Y0014708D01*
X0193869Y0014535D01*
X0193612Y0014368D01*
X0193351Y0014208D01*
X0193086Y0014054D01*
X0192818Y0013907D01*
X0192546Y0013766D01*
X0192271Y0013632D01*
X0191992Y0013505D01*
X0191711Y0013384D01*
X0191426Y0013271D01*
X0191139Y0013165D01*
X0190850Y0013065D01*
X0190558Y0012973D01*
X0190264Y0012888D01*
X0189968Y0012810D01*
X0189670Y0012739D01*
X0189370Y0012676D01*
X0189069Y0012620D01*
X0188767Y0012572D01*
X0188464Y0012531D01*
X0188160Y0012497D01*
X0187855Y0012471D01*
X0187549Y0012452D01*
X0187243Y0012441D01*
X0186937Y0012437D01*
X0186631Y0012441D01*
X0186325Y0012452D01*
X0186019Y0012471D01*
X0185714Y0012497D01*
X0185410Y0012531D01*
X0185107Y0012572D01*
X0184805Y0012620D01*
X0184504Y0012676D01*
X0184204Y0012739D01*
X0183906Y0012810D01*
X0183610Y0012888D01*
X0183316Y0012973D01*
X0183024Y0013065D01*
X0182735Y0013165D01*
X0182448Y0013271D01*
X0182163Y0013384D01*
X0181882Y0013505D01*
X0181603Y0013632D01*
X0181328Y0013766D01*
X0181056Y0013907D01*
X0180788Y0014054D01*
X0180523Y0014208D01*
X0180262Y0014368D01*
X0180005Y0014535D01*
X0179753Y0014708D01*
X0179504Y0014887D01*
X0179261Y0015072D01*
X0179021Y0015263D01*
X0178787Y0015459D01*
X0178557Y0015662D01*
X0178333Y0015870D01*
X0178113Y0016083D01*
X0177899Y0016302D01*
X0177690Y0016526D01*
X0177487Y0016755D01*
X0177289Y0016989D01*
X0177098Y0017227D01*
X0176912Y0017471D01*
X0176732Y0017718D01*
X0176558Y0017971D01*
X0176391Y0018227D01*
X0176230Y0018487D01*
X0176075Y0018751D01*
X0175927Y0019019D01*
X0175785Y0019290D01*
X0175650Y0019565D01*
X0175522Y0019843D01*
X0175401Y0020124D01*
X0175286Y0020408D01*
X0175179Y0020695D01*
X0175078Y0020984D01*
X0174985Y0021276D01*
X0174899Y0021570D01*
X0174820Y0021865D01*
X0174749Y0022163D01*
X0174684Y0022462D01*
X0174627Y0022763D01*
X0174578Y0023065D01*
X0174536Y0023368D01*
X0174501Y0023673D01*
X0174474Y0023977D01*
X0174454Y0024283D01*
X0174442Y0024589D01*
X0174437Y0024895D01*
X0174440Y0025201D01*
X0174450Y0025507D01*
X0174468Y0025813D01*
X0174493Y0026118D01*
X0174526Y0026422D01*
X0174566Y0026726D01*
X0174613Y0027028D01*
X0174668Y0027329D01*
X0174730Y0027629D01*
X0174800Y0027927D01*
X0174877Y0028223D01*
X0174961Y0028518D01*
X0175052Y0028810D01*
X0175151Y0029100D01*
X0175256Y0029387D01*
X0175368Y0029672D01*
X0175488Y0029954D01*
X0175614Y0030233D01*
X0175747Y0030508D01*
X0175887Y0030781D01*
X0176033Y0031050D01*
X0176186Y0031315D01*
X0176346Y0031576D01*
X0176512Y0031833D01*
X0176684Y0032087D01*
X0176862Y0032336D01*
X0177046Y0032580D01*
X0177236Y0032820D01*
X0177432Y0033055D01*
X0177634Y0033286D01*
X0177841Y0033511D01*
X0178054Y0033731D01*
X0178272Y0033946D01*
X0178495Y0034155D01*
X0178723Y0034359D01*
X0178956Y0034558D01*
X0179194Y0034750D01*
X0179437Y0034937D01*
X0141937Y0033937D02*
X0141937Y0023937D01*
X0111937Y0023937D01*
X0111937Y0033937D01*
X0141937Y0033937D01*
X0132937Y0028937D02*
X0127937Y0028937D01*
X0125937Y0028937D02*
X0120937Y0028937D01*
X0125937Y0031937D02*
X0125937Y0025937D01*
X0127937Y0025937D02*
X0127937Y0031937D01*
X0109937Y0033937D02*
X0109937Y0023937D01*
X0089937Y0023937D01*
X0089937Y0033937D01*
X0109937Y0033937D01*
X0100837Y0028937D02*
X0100839Y0029065D01*
X0100845Y0029192D01*
X0100855Y0029319D01*
X0100869Y0029446D01*
X0100886Y0029572D01*
X0100908Y0029698D01*
X0100934Y0029823D01*
X0100963Y0029947D01*
X0100997Y0030070D01*
X0101034Y0030192D01*
X0101075Y0030313D01*
X0101119Y0030432D01*
X0101168Y0030550D01*
X0101220Y0030667D01*
X0101275Y0030781D01*
X0101334Y0030894D01*
X0101397Y0031005D01*
X0101463Y0031114D01*
X0101532Y0031221D01*
X0101605Y0031326D01*
X0101681Y0031429D01*
X0101760Y0031529D01*
X0101842Y0031626D01*
X0101927Y0031721D01*
X0102015Y0031814D01*
X0102106Y0031903D01*
X0102200Y0031990D01*
X0102296Y0032073D01*
X0102395Y0032154D01*
X0102496Y0032231D01*
X0102600Y0032306D01*
X0102706Y0032377D01*
X0102814Y0032444D01*
X0102924Y0032509D01*
X0103036Y0032570D01*
X0103150Y0032627D01*
X0103265Y0032681D01*
X0103383Y0032731D01*
X0103501Y0032777D01*
X0103622Y0032820D01*
X0103743Y0032859D01*
X0103866Y0032895D01*
X0103989Y0032926D01*
X0104114Y0032953D01*
X0104239Y0032977D01*
X0104365Y0032997D01*
X0104492Y0033013D01*
X0104618Y0033025D01*
X0104746Y0033033D01*
X0104873Y0033037D01*
X0105001Y0033037D01*
X0105128Y0033033D01*
X0105256Y0033025D01*
X0105382Y0033013D01*
X0105509Y0032997D01*
X0105635Y0032977D01*
X0105760Y0032953D01*
X0105885Y0032926D01*
X0106008Y0032895D01*
X0106131Y0032859D01*
X0106252Y0032820D01*
X0106373Y0032777D01*
X0106491Y0032731D01*
X0106609Y0032681D01*
X0106724Y0032627D01*
X0106838Y0032570D01*
X0106950Y0032509D01*
X0107060Y0032444D01*
X0107168Y0032377D01*
X0107274Y0032306D01*
X0107378Y0032231D01*
X0107479Y0032154D01*
X0107578Y0032073D01*
X0107674Y0031990D01*
X0107768Y0031903D01*
X0107859Y0031814D01*
X0107947Y0031721D01*
X0108032Y0031626D01*
X0108114Y0031529D01*
X0108193Y0031429D01*
X0108269Y0031326D01*
X0108342Y0031221D01*
X0108411Y0031114D01*
X0108477Y0031005D01*
X0108540Y0030894D01*
X0108599Y0030781D01*
X0108654Y0030667D01*
X0108706Y0030550D01*
X0108755Y0030432D01*
X0108799Y0030313D01*
X0108840Y0030192D01*
X0108877Y0030070D01*
X0108911Y0029947D01*
X0108940Y0029823D01*
X0108966Y0029698D01*
X0108988Y0029572D01*
X0109005Y0029446D01*
X0109019Y0029319D01*
X0109029Y0029192D01*
X0109035Y0029065D01*
X0109037Y0028937D01*
X0109035Y0028809D01*
X0109029Y0028682D01*
X0109019Y0028555D01*
X0109005Y0028428D01*
X0108988Y0028302D01*
X0108966Y0028176D01*
X0108940Y0028051D01*
X0108911Y0027927D01*
X0108877Y0027804D01*
X0108840Y0027682D01*
X0108799Y0027561D01*
X0108755Y0027442D01*
X0108706Y0027324D01*
X0108654Y0027207D01*
X0108599Y0027093D01*
X0108540Y0026980D01*
X0108477Y0026869D01*
X0108411Y0026760D01*
X0108342Y0026653D01*
X0108269Y0026548D01*
X0108193Y0026445D01*
X0108114Y0026345D01*
X0108032Y0026248D01*
X0107947Y0026153D01*
X0107859Y0026060D01*
X0107768Y0025971D01*
X0107674Y0025884D01*
X0107578Y0025801D01*
X0107479Y0025720D01*
X0107378Y0025643D01*
X0107274Y0025568D01*
X0107168Y0025497D01*
X0107060Y0025430D01*
X0106950Y0025365D01*
X0106838Y0025304D01*
X0106724Y0025247D01*
X0106609Y0025193D01*
X0106491Y0025143D01*
X0106373Y0025097D01*
X0106252Y0025054D01*
X0106131Y0025015D01*
X0106008Y0024979D01*
X0105885Y0024948D01*
X0105760Y0024921D01*
X0105635Y0024897D01*
X0105509Y0024877D01*
X0105382Y0024861D01*
X0105256Y0024849D01*
X0105128Y0024841D01*
X0105001Y0024837D01*
X0104873Y0024837D01*
X0104746Y0024841D01*
X0104618Y0024849D01*
X0104492Y0024861D01*
X0104365Y0024877D01*
X0104239Y0024897D01*
X0104114Y0024921D01*
X0103989Y0024948D01*
X0103866Y0024979D01*
X0103743Y0025015D01*
X0103622Y0025054D01*
X0103501Y0025097D01*
X0103383Y0025143D01*
X0103265Y0025193D01*
X0103150Y0025247D01*
X0103036Y0025304D01*
X0102924Y0025365D01*
X0102814Y0025430D01*
X0102706Y0025497D01*
X0102600Y0025568D01*
X0102496Y0025643D01*
X0102395Y0025720D01*
X0102296Y0025801D01*
X0102200Y0025884D01*
X0102106Y0025971D01*
X0102015Y0026060D01*
X0101927Y0026153D01*
X0101842Y0026248D01*
X0101760Y0026345D01*
X0101681Y0026445D01*
X0101605Y0026548D01*
X0101532Y0026653D01*
X0101463Y0026760D01*
X0101397Y0026869D01*
X0101334Y0026980D01*
X0101275Y0027093D01*
X0101220Y0027207D01*
X0101168Y0027324D01*
X0101119Y0027442D01*
X0101075Y0027561D01*
X0101034Y0027682D01*
X0100997Y0027804D01*
X0100963Y0027927D01*
X0100934Y0028051D01*
X0100908Y0028176D01*
X0100886Y0028302D01*
X0100869Y0028428D01*
X0100855Y0028555D01*
X0100845Y0028682D01*
X0100839Y0028809D01*
X0100837Y0028937D01*
X0100937Y0027437D02*
X0098937Y0027437D01*
X0098937Y0030437D02*
X0100937Y0030437D01*
X0087937Y0033937D02*
X0087937Y0023937D01*
X0067937Y0023937D01*
X0067937Y0033937D01*
X0087937Y0033937D01*
X0078837Y0028937D02*
X0078839Y0029065D01*
X0078845Y0029192D01*
X0078855Y0029319D01*
X0078869Y0029446D01*
X0078886Y0029572D01*
X0078908Y0029698D01*
X0078934Y0029823D01*
X0078963Y0029947D01*
X0078997Y0030070D01*
X0079034Y0030192D01*
X0079075Y0030313D01*
X0079119Y0030432D01*
X0079168Y0030550D01*
X0079220Y0030667D01*
X0079275Y0030781D01*
X0079334Y0030894D01*
X0079397Y0031005D01*
X0079463Y0031114D01*
X0079532Y0031221D01*
X0079605Y0031326D01*
X0079681Y0031429D01*
X0079760Y0031529D01*
X0079842Y0031626D01*
X0079927Y0031721D01*
X0080015Y0031814D01*
X0080106Y0031903D01*
X0080200Y0031990D01*
X0080296Y0032073D01*
X0080395Y0032154D01*
X0080496Y0032231D01*
X0080600Y0032306D01*
X0080706Y0032377D01*
X0080814Y0032444D01*
X0080924Y0032509D01*
X0081036Y0032570D01*
X0081150Y0032627D01*
X0081265Y0032681D01*
X0081383Y0032731D01*
X0081501Y0032777D01*
X0081622Y0032820D01*
X0081743Y0032859D01*
X0081866Y0032895D01*
X0081989Y0032926D01*
X0082114Y0032953D01*
X0082239Y0032977D01*
X0082365Y0032997D01*
X0082492Y0033013D01*
X0082618Y0033025D01*
X0082746Y0033033D01*
X0082873Y0033037D01*
X0083001Y0033037D01*
X0083128Y0033033D01*
X0083256Y0033025D01*
X0083382Y0033013D01*
X0083509Y0032997D01*
X0083635Y0032977D01*
X0083760Y0032953D01*
X0083885Y0032926D01*
X0084008Y0032895D01*
X0084131Y0032859D01*
X0084252Y0032820D01*
X0084373Y0032777D01*
X0084491Y0032731D01*
X0084609Y0032681D01*
X0084724Y0032627D01*
X0084838Y0032570D01*
X0084950Y0032509D01*
X0085060Y0032444D01*
X0085168Y0032377D01*
X0085274Y0032306D01*
X0085378Y0032231D01*
X0085479Y0032154D01*
X0085578Y0032073D01*
X0085674Y0031990D01*
X0085768Y0031903D01*
X0085859Y0031814D01*
X0085947Y0031721D01*
X0086032Y0031626D01*
X0086114Y0031529D01*
X0086193Y0031429D01*
X0086269Y0031326D01*
X0086342Y0031221D01*
X0086411Y0031114D01*
X0086477Y0031005D01*
X0086540Y0030894D01*
X0086599Y0030781D01*
X0086654Y0030667D01*
X0086706Y0030550D01*
X0086755Y0030432D01*
X0086799Y0030313D01*
X0086840Y0030192D01*
X0086877Y0030070D01*
X0086911Y0029947D01*
X0086940Y0029823D01*
X0086966Y0029698D01*
X0086988Y0029572D01*
X0087005Y0029446D01*
X0087019Y0029319D01*
X0087029Y0029192D01*
X0087035Y0029065D01*
X0087037Y0028937D01*
X0087035Y0028809D01*
X0087029Y0028682D01*
X0087019Y0028555D01*
X0087005Y0028428D01*
X0086988Y0028302D01*
X0086966Y0028176D01*
X0086940Y0028051D01*
X0086911Y0027927D01*
X0086877Y0027804D01*
X0086840Y0027682D01*
X0086799Y0027561D01*
X0086755Y0027442D01*
X0086706Y0027324D01*
X0086654Y0027207D01*
X0086599Y0027093D01*
X0086540Y0026980D01*
X0086477Y0026869D01*
X0086411Y0026760D01*
X0086342Y0026653D01*
X0086269Y0026548D01*
X0086193Y0026445D01*
X0086114Y0026345D01*
X0086032Y0026248D01*
X0085947Y0026153D01*
X0085859Y0026060D01*
X0085768Y0025971D01*
X0085674Y0025884D01*
X0085578Y0025801D01*
X0085479Y0025720D01*
X0085378Y0025643D01*
X0085274Y0025568D01*
X0085168Y0025497D01*
X0085060Y0025430D01*
X0084950Y0025365D01*
X0084838Y0025304D01*
X0084724Y0025247D01*
X0084609Y0025193D01*
X0084491Y0025143D01*
X0084373Y0025097D01*
X0084252Y0025054D01*
X0084131Y0025015D01*
X0084008Y0024979D01*
X0083885Y0024948D01*
X0083760Y0024921D01*
X0083635Y0024897D01*
X0083509Y0024877D01*
X0083382Y0024861D01*
X0083256Y0024849D01*
X0083128Y0024841D01*
X0083001Y0024837D01*
X0082873Y0024837D01*
X0082746Y0024841D01*
X0082618Y0024849D01*
X0082492Y0024861D01*
X0082365Y0024877D01*
X0082239Y0024897D01*
X0082114Y0024921D01*
X0081989Y0024948D01*
X0081866Y0024979D01*
X0081743Y0025015D01*
X0081622Y0025054D01*
X0081501Y0025097D01*
X0081383Y0025143D01*
X0081265Y0025193D01*
X0081150Y0025247D01*
X0081036Y0025304D01*
X0080924Y0025365D01*
X0080814Y0025430D01*
X0080706Y0025497D01*
X0080600Y0025568D01*
X0080496Y0025643D01*
X0080395Y0025720D01*
X0080296Y0025801D01*
X0080200Y0025884D01*
X0080106Y0025971D01*
X0080015Y0026060D01*
X0079927Y0026153D01*
X0079842Y0026248D01*
X0079760Y0026345D01*
X0079681Y0026445D01*
X0079605Y0026548D01*
X0079532Y0026653D01*
X0079463Y0026760D01*
X0079397Y0026869D01*
X0079334Y0026980D01*
X0079275Y0027093D01*
X0079220Y0027207D01*
X0079168Y0027324D01*
X0079119Y0027442D01*
X0079075Y0027561D01*
X0079034Y0027682D01*
X0078997Y0027804D01*
X0078963Y0027927D01*
X0078934Y0028051D01*
X0078908Y0028176D01*
X0078886Y0028302D01*
X0078869Y0028428D01*
X0078855Y0028555D01*
X0078845Y0028682D01*
X0078839Y0028809D01*
X0078837Y0028937D01*
X0078937Y0027437D02*
X0076937Y0027437D01*
X0076937Y0030437D02*
X0078937Y0030437D01*
X0067937Y0045937D02*
X0064937Y0045937D01*
X0064748Y0046126D02*
X0064748Y0052819D01*
X0064890Y0052821D01*
X0065032Y0052827D01*
X0065174Y0052837D01*
X0065316Y0052851D01*
X0065457Y0052868D01*
X0065598Y0052890D01*
X0065738Y0052916D01*
X0065877Y0052945D01*
X0066015Y0052978D01*
X0066153Y0053016D01*
X0066289Y0053056D01*
X0066424Y0053101D01*
X0066558Y0053150D01*
X0066690Y0053202D01*
X0066821Y0053258D01*
X0066950Y0053317D01*
X0067078Y0053380D01*
X0067204Y0053447D01*
X0067328Y0053517D01*
X0067449Y0053590D01*
X0067569Y0053667D01*
X0067687Y0053747D01*
X0067802Y0053830D01*
X0067915Y0053917D01*
X0068026Y0054006D01*
X0068134Y0054099D01*
X0068239Y0054194D01*
X0068342Y0054293D01*
X0068442Y0054394D01*
X0068539Y0054498D01*
X0068633Y0054605D01*
X0068724Y0054714D01*
X0068812Y0054826D01*
X0068897Y0054940D01*
X0068979Y0055057D01*
X0069057Y0055175D01*
X0069132Y0055296D01*
X0069204Y0055419D01*
X0069272Y0055544D01*
X0069337Y0055671D01*
X0069398Y0055799D01*
X0069456Y0055929D01*
X0069510Y0056061D01*
X0069560Y0056194D01*
X0069607Y0056328D01*
X0069649Y0056464D01*
X0069689Y0056601D01*
X0069724Y0056739D01*
X0069755Y0056878D01*
X0069783Y0057017D01*
X0069806Y0057157D01*
X0069826Y0057298D01*
X0069842Y0057440D01*
X0069854Y0057582D01*
X0069862Y0057724D01*
X0069866Y0057866D01*
X0069866Y0058008D01*
X0069862Y0058150D01*
X0069854Y0058292D01*
X0069842Y0058434D01*
X0069826Y0058576D01*
X0069806Y0058717D01*
X0069783Y0058857D01*
X0069755Y0058996D01*
X0069724Y0059135D01*
X0069689Y0059273D01*
X0069649Y0059410D01*
X0069607Y0059546D01*
X0069560Y0059680D01*
X0069510Y0059813D01*
X0069456Y0059945D01*
X0069398Y0060075D01*
X0069337Y0060203D01*
X0069272Y0060330D01*
X0069204Y0060455D01*
X0069132Y0060578D01*
X0069057Y0060699D01*
X0068979Y0060817D01*
X0068897Y0060934D01*
X0068812Y0061048D01*
X0068724Y0061160D01*
X0068633Y0061269D01*
X0068539Y0061376D01*
X0068442Y0061480D01*
X0068342Y0061581D01*
X0068239Y0061680D01*
X0068134Y0061775D01*
X0068026Y0061868D01*
X0067915Y0061957D01*
X0067802Y0062044D01*
X0067687Y0062127D01*
X0067569Y0062207D01*
X0067449Y0062284D01*
X0067328Y0062357D01*
X0067204Y0062427D01*
X0067078Y0062494D01*
X0066950Y0062557D01*
X0066821Y0062616D01*
X0066690Y0062672D01*
X0066558Y0062724D01*
X0066424Y0062773D01*
X0066289Y0062818D01*
X0066153Y0062858D01*
X0066015Y0062896D01*
X0065877Y0062929D01*
X0065738Y0062958D01*
X0065598Y0062984D01*
X0065457Y0063006D01*
X0065316Y0063023D01*
X0065174Y0063037D01*
X0065032Y0063047D01*
X0064890Y0063053D01*
X0064748Y0063055D01*
X0064748Y0069748D01*
X0064937Y0069937D02*
X0067937Y0069937D01*
X0064591Y0079669D02*
X0064591Y0096205D01*
X0021283Y0096205D01*
X0021283Y0079669D01*
X0064591Y0079669D01*
X0087937Y0093362D02*
X0087937Y0106906D01*
X0117937Y0106906D01*
X0117937Y0093362D01*
X0087937Y0093362D01*
X0097937Y0090937D02*
X0097937Y0080937D01*
X0117937Y0080937D01*
X0117937Y0090937D01*
X0097937Y0090937D01*
X0101937Y0096937D02*
X0101937Y0102937D01*
X0103937Y0102937D02*
X0103937Y0096937D01*
X0103937Y0099937D02*
X0108937Y0099937D01*
X0101937Y0099937D02*
X0096937Y0099937D01*
X0119937Y0093362D02*
X0119937Y0106906D01*
X0149937Y0106906D01*
X0149937Y0093362D01*
X0119937Y0093362D01*
X0119937Y0090937D02*
X0119937Y0080937D01*
X0139937Y0080937D01*
X0139937Y0090937D01*
X0119937Y0090937D01*
X0108837Y0085937D02*
X0108839Y0086065D01*
X0108845Y0086192D01*
X0108855Y0086319D01*
X0108869Y0086446D01*
X0108886Y0086572D01*
X0108908Y0086698D01*
X0108934Y0086823D01*
X0108963Y0086947D01*
X0108997Y0087070D01*
X0109034Y0087192D01*
X0109075Y0087313D01*
X0109119Y0087432D01*
X0109168Y0087550D01*
X0109220Y0087667D01*
X0109275Y0087781D01*
X0109334Y0087894D01*
X0109397Y0088005D01*
X0109463Y0088114D01*
X0109532Y0088221D01*
X0109605Y0088326D01*
X0109681Y0088429D01*
X0109760Y0088529D01*
X0109842Y0088626D01*
X0109927Y0088721D01*
X0110015Y0088814D01*
X0110106Y0088903D01*
X0110200Y0088990D01*
X0110296Y0089073D01*
X0110395Y0089154D01*
X0110496Y0089231D01*
X0110600Y0089306D01*
X0110706Y0089377D01*
X0110814Y0089444D01*
X0110924Y0089509D01*
X0111036Y0089570D01*
X0111150Y0089627D01*
X0111265Y0089681D01*
X0111383Y0089731D01*
X0111501Y0089777D01*
X0111622Y0089820D01*
X0111743Y0089859D01*
X0111866Y0089895D01*
X0111989Y0089926D01*
X0112114Y0089953D01*
X0112239Y0089977D01*
X0112365Y0089997D01*
X0112492Y0090013D01*
X0112618Y0090025D01*
X0112746Y0090033D01*
X0112873Y0090037D01*
X0113001Y0090037D01*
X0113128Y0090033D01*
X0113256Y0090025D01*
X0113382Y0090013D01*
X0113509Y0089997D01*
X0113635Y0089977D01*
X0113760Y0089953D01*
X0113885Y0089926D01*
X0114008Y0089895D01*
X0114131Y0089859D01*
X0114252Y0089820D01*
X0114373Y0089777D01*
X0114491Y0089731D01*
X0114609Y0089681D01*
X0114724Y0089627D01*
X0114838Y0089570D01*
X0114950Y0089509D01*
X0115060Y0089444D01*
X0115168Y0089377D01*
X0115274Y0089306D01*
X0115378Y0089231D01*
X0115479Y0089154D01*
X0115578Y0089073D01*
X0115674Y0088990D01*
X0115768Y0088903D01*
X0115859Y0088814D01*
X0115947Y0088721D01*
X0116032Y0088626D01*
X0116114Y0088529D01*
X0116193Y0088429D01*
X0116269Y0088326D01*
X0116342Y0088221D01*
X0116411Y0088114D01*
X0116477Y0088005D01*
X0116540Y0087894D01*
X0116599Y0087781D01*
X0116654Y0087667D01*
X0116706Y0087550D01*
X0116755Y0087432D01*
X0116799Y0087313D01*
X0116840Y0087192D01*
X0116877Y0087070D01*
X0116911Y0086947D01*
X0116940Y0086823D01*
X0116966Y0086698D01*
X0116988Y0086572D01*
X0117005Y0086446D01*
X0117019Y0086319D01*
X0117029Y0086192D01*
X0117035Y0086065D01*
X0117037Y0085937D01*
X0117035Y0085809D01*
X0117029Y0085682D01*
X0117019Y0085555D01*
X0117005Y0085428D01*
X0116988Y0085302D01*
X0116966Y0085176D01*
X0116940Y0085051D01*
X0116911Y0084927D01*
X0116877Y0084804D01*
X0116840Y0084682D01*
X0116799Y0084561D01*
X0116755Y0084442D01*
X0116706Y0084324D01*
X0116654Y0084207D01*
X0116599Y0084093D01*
X0116540Y0083980D01*
X0116477Y0083869D01*
X0116411Y0083760D01*
X0116342Y0083653D01*
X0116269Y0083548D01*
X0116193Y0083445D01*
X0116114Y0083345D01*
X0116032Y0083248D01*
X0115947Y0083153D01*
X0115859Y0083060D01*
X0115768Y0082971D01*
X0115674Y0082884D01*
X0115578Y0082801D01*
X0115479Y0082720D01*
X0115378Y0082643D01*
X0115274Y0082568D01*
X0115168Y0082497D01*
X0115060Y0082430D01*
X0114950Y0082365D01*
X0114838Y0082304D01*
X0114724Y0082247D01*
X0114609Y0082193D01*
X0114491Y0082143D01*
X0114373Y0082097D01*
X0114252Y0082054D01*
X0114131Y0082015D01*
X0114008Y0081979D01*
X0113885Y0081948D01*
X0113760Y0081921D01*
X0113635Y0081897D01*
X0113509Y0081877D01*
X0113382Y0081861D01*
X0113256Y0081849D01*
X0113128Y0081841D01*
X0113001Y0081837D01*
X0112873Y0081837D01*
X0112746Y0081841D01*
X0112618Y0081849D01*
X0112492Y0081861D01*
X0112365Y0081877D01*
X0112239Y0081897D01*
X0112114Y0081921D01*
X0111989Y0081948D01*
X0111866Y0081979D01*
X0111743Y0082015D01*
X0111622Y0082054D01*
X0111501Y0082097D01*
X0111383Y0082143D01*
X0111265Y0082193D01*
X0111150Y0082247D01*
X0111036Y0082304D01*
X0110924Y0082365D01*
X0110814Y0082430D01*
X0110706Y0082497D01*
X0110600Y0082568D01*
X0110496Y0082643D01*
X0110395Y0082720D01*
X0110296Y0082801D01*
X0110200Y0082884D01*
X0110106Y0082971D01*
X0110015Y0083060D01*
X0109927Y0083153D01*
X0109842Y0083248D01*
X0109760Y0083345D01*
X0109681Y0083445D01*
X0109605Y0083548D01*
X0109532Y0083653D01*
X0109463Y0083760D01*
X0109397Y0083869D01*
X0109334Y0083980D01*
X0109275Y0084093D01*
X0109220Y0084207D01*
X0109168Y0084324D01*
X0109119Y0084442D01*
X0109075Y0084561D01*
X0109034Y0084682D01*
X0108997Y0084804D01*
X0108963Y0084927D01*
X0108934Y0085051D01*
X0108908Y0085176D01*
X0108886Y0085302D01*
X0108869Y0085428D01*
X0108855Y0085555D01*
X0108845Y0085682D01*
X0108839Y0085809D01*
X0108837Y0085937D01*
X0108937Y0087437D02*
X0106937Y0087437D01*
X0106937Y0084437D02*
X0108937Y0084437D01*
X0128937Y0084437D02*
X0130937Y0084437D01*
X0130837Y0085937D02*
X0130839Y0086065D01*
X0130845Y0086192D01*
X0130855Y0086319D01*
X0130869Y0086446D01*
X0130886Y0086572D01*
X0130908Y0086698D01*
X0130934Y0086823D01*
X0130963Y0086947D01*
X0130997Y0087070D01*
X0131034Y0087192D01*
X0131075Y0087313D01*
X0131119Y0087432D01*
X0131168Y0087550D01*
X0131220Y0087667D01*
X0131275Y0087781D01*
X0131334Y0087894D01*
X0131397Y0088005D01*
X0131463Y0088114D01*
X0131532Y0088221D01*
X0131605Y0088326D01*
X0131681Y0088429D01*
X0131760Y0088529D01*
X0131842Y0088626D01*
X0131927Y0088721D01*
X0132015Y0088814D01*
X0132106Y0088903D01*
X0132200Y0088990D01*
X0132296Y0089073D01*
X0132395Y0089154D01*
X0132496Y0089231D01*
X0132600Y0089306D01*
X0132706Y0089377D01*
X0132814Y0089444D01*
X0132924Y0089509D01*
X0133036Y0089570D01*
X0133150Y0089627D01*
X0133265Y0089681D01*
X0133383Y0089731D01*
X0133501Y0089777D01*
X0133622Y0089820D01*
X0133743Y0089859D01*
X0133866Y0089895D01*
X0133989Y0089926D01*
X0134114Y0089953D01*
X0134239Y0089977D01*
X0134365Y0089997D01*
X0134492Y0090013D01*
X0134618Y0090025D01*
X0134746Y0090033D01*
X0134873Y0090037D01*
X0135001Y0090037D01*
X0135128Y0090033D01*
X0135256Y0090025D01*
X0135382Y0090013D01*
X0135509Y0089997D01*
X0135635Y0089977D01*
X0135760Y0089953D01*
X0135885Y0089926D01*
X0136008Y0089895D01*
X0136131Y0089859D01*
X0136252Y0089820D01*
X0136373Y0089777D01*
X0136491Y0089731D01*
X0136609Y0089681D01*
X0136724Y0089627D01*
X0136838Y0089570D01*
X0136950Y0089509D01*
X0137060Y0089444D01*
X0137168Y0089377D01*
X0137274Y0089306D01*
X0137378Y0089231D01*
X0137479Y0089154D01*
X0137578Y0089073D01*
X0137674Y0088990D01*
X0137768Y0088903D01*
X0137859Y0088814D01*
X0137947Y0088721D01*
X0138032Y0088626D01*
X0138114Y0088529D01*
X0138193Y0088429D01*
X0138269Y0088326D01*
X0138342Y0088221D01*
X0138411Y0088114D01*
X0138477Y0088005D01*
X0138540Y0087894D01*
X0138599Y0087781D01*
X0138654Y0087667D01*
X0138706Y0087550D01*
X0138755Y0087432D01*
X0138799Y0087313D01*
X0138840Y0087192D01*
X0138877Y0087070D01*
X0138911Y0086947D01*
X0138940Y0086823D01*
X0138966Y0086698D01*
X0138988Y0086572D01*
X0139005Y0086446D01*
X0139019Y0086319D01*
X0139029Y0086192D01*
X0139035Y0086065D01*
X0139037Y0085937D01*
X0139035Y0085809D01*
X0139029Y0085682D01*
X0139019Y0085555D01*
X0139005Y0085428D01*
X0138988Y0085302D01*
X0138966Y0085176D01*
X0138940Y0085051D01*
X0138911Y0084927D01*
X0138877Y0084804D01*
X0138840Y0084682D01*
X0138799Y0084561D01*
X0138755Y0084442D01*
X0138706Y0084324D01*
X0138654Y0084207D01*
X0138599Y0084093D01*
X0138540Y0083980D01*
X0138477Y0083869D01*
X0138411Y0083760D01*
X0138342Y0083653D01*
X0138269Y0083548D01*
X0138193Y0083445D01*
X0138114Y0083345D01*
X0138032Y0083248D01*
X0137947Y0083153D01*
X0137859Y0083060D01*
X0137768Y0082971D01*
X0137674Y0082884D01*
X0137578Y0082801D01*
X0137479Y0082720D01*
X0137378Y0082643D01*
X0137274Y0082568D01*
X0137168Y0082497D01*
X0137060Y0082430D01*
X0136950Y0082365D01*
X0136838Y0082304D01*
X0136724Y0082247D01*
X0136609Y0082193D01*
X0136491Y0082143D01*
X0136373Y0082097D01*
X0136252Y0082054D01*
X0136131Y0082015D01*
X0136008Y0081979D01*
X0135885Y0081948D01*
X0135760Y0081921D01*
X0135635Y0081897D01*
X0135509Y0081877D01*
X0135382Y0081861D01*
X0135256Y0081849D01*
X0135128Y0081841D01*
X0135001Y0081837D01*
X0134873Y0081837D01*
X0134746Y0081841D01*
X0134618Y0081849D01*
X0134492Y0081861D01*
X0134365Y0081877D01*
X0134239Y0081897D01*
X0134114Y0081921D01*
X0133989Y0081948D01*
X0133866Y0081979D01*
X0133743Y0082015D01*
X0133622Y0082054D01*
X0133501Y0082097D01*
X0133383Y0082143D01*
X0133265Y0082193D01*
X0133150Y0082247D01*
X0133036Y0082304D01*
X0132924Y0082365D01*
X0132814Y0082430D01*
X0132706Y0082497D01*
X0132600Y0082568D01*
X0132496Y0082643D01*
X0132395Y0082720D01*
X0132296Y0082801D01*
X0132200Y0082884D01*
X0132106Y0082971D01*
X0132015Y0083060D01*
X0131927Y0083153D01*
X0131842Y0083248D01*
X0131760Y0083345D01*
X0131681Y0083445D01*
X0131605Y0083548D01*
X0131532Y0083653D01*
X0131463Y0083760D01*
X0131397Y0083869D01*
X0131334Y0083980D01*
X0131275Y0084093D01*
X0131220Y0084207D01*
X0131168Y0084324D01*
X0131119Y0084442D01*
X0131075Y0084561D01*
X0131034Y0084682D01*
X0130997Y0084804D01*
X0130963Y0084927D01*
X0130934Y0085051D01*
X0130908Y0085176D01*
X0130886Y0085302D01*
X0130869Y0085428D01*
X0130855Y0085555D01*
X0130845Y0085682D01*
X0130839Y0085809D01*
X0130837Y0085937D01*
X0130937Y0087437D02*
X0128937Y0087437D01*
X0133937Y0096937D02*
X0133937Y0102937D01*
X0135937Y0102937D02*
X0135937Y0096937D01*
X0135937Y0099937D02*
X0140937Y0099937D01*
X0133937Y0099937D02*
X0128937Y0099937D01*
X0137937Y0069937D02*
X0140937Y0069937D01*
X0141126Y0069748D02*
X0141126Y0046126D01*
X0140937Y0045937D02*
X0137937Y0045937D01*
X0181031Y0072937D02*
X0181033Y0073090D01*
X0181039Y0073244D01*
X0181049Y0073397D01*
X0181063Y0073549D01*
X0181081Y0073702D01*
X0181103Y0073853D01*
X0181128Y0074004D01*
X0181158Y0074155D01*
X0181192Y0074305D01*
X0181229Y0074453D01*
X0181270Y0074601D01*
X0181315Y0074747D01*
X0181364Y0074893D01*
X0181417Y0075037D01*
X0181473Y0075179D01*
X0181533Y0075320D01*
X0181597Y0075460D01*
X0181664Y0075598D01*
X0181735Y0075734D01*
X0181810Y0075868D01*
X0181887Y0076000D01*
X0181969Y0076130D01*
X0182053Y0076258D01*
X0182141Y0076384D01*
X0182232Y0076507D01*
X0182326Y0076628D01*
X0182424Y0076746D01*
X0182524Y0076862D01*
X0182628Y0076975D01*
X0182734Y0077086D01*
X0182843Y0077194D01*
X0182955Y0077299D01*
X0183069Y0077400D01*
X0183187Y0077499D01*
X0183306Y0077595D01*
X0183428Y0077688D01*
X0183553Y0077777D01*
X0183680Y0077864D01*
X0183809Y0077946D01*
X0183940Y0078026D01*
X0184073Y0078102D01*
X0184208Y0078175D01*
X0184345Y0078244D01*
X0184484Y0078309D01*
X0184624Y0078371D01*
X0184766Y0078429D01*
X0184909Y0078484D01*
X0185054Y0078535D01*
X0185200Y0078582D01*
X0185347Y0078625D01*
X0185495Y0078664D01*
X0185644Y0078700D01*
X0185794Y0078731D01*
X0185945Y0078759D01*
X0186096Y0078783D01*
X0186249Y0078803D01*
X0186401Y0078819D01*
X0186554Y0078831D01*
X0186707Y0078839D01*
X0186860Y0078843D01*
X0187014Y0078843D01*
X0187167Y0078839D01*
X0187320Y0078831D01*
X0187473Y0078819D01*
X0187625Y0078803D01*
X0187778Y0078783D01*
X0187929Y0078759D01*
X0188080Y0078731D01*
X0188230Y0078700D01*
X0188379Y0078664D01*
X0188527Y0078625D01*
X0188674Y0078582D01*
X0188820Y0078535D01*
X0188965Y0078484D01*
X0189108Y0078429D01*
X0189250Y0078371D01*
X0189390Y0078309D01*
X0189529Y0078244D01*
X0189666Y0078175D01*
X0189801Y0078102D01*
X0189934Y0078026D01*
X0190065Y0077946D01*
X0190194Y0077864D01*
X0190321Y0077777D01*
X0190446Y0077688D01*
X0190568Y0077595D01*
X0190687Y0077499D01*
X0190805Y0077400D01*
X0190919Y0077299D01*
X0191031Y0077194D01*
X0191140Y0077086D01*
X0191246Y0076975D01*
X0191350Y0076862D01*
X0191450Y0076746D01*
X0191548Y0076628D01*
X0191642Y0076507D01*
X0191733Y0076384D01*
X0191821Y0076258D01*
X0191905Y0076130D01*
X0191987Y0076000D01*
X0192064Y0075868D01*
X0192139Y0075734D01*
X0192210Y0075598D01*
X0192277Y0075460D01*
X0192341Y0075320D01*
X0192401Y0075179D01*
X0192457Y0075037D01*
X0192510Y0074893D01*
X0192559Y0074747D01*
X0192604Y0074601D01*
X0192645Y0074453D01*
X0192682Y0074305D01*
X0192716Y0074155D01*
X0192746Y0074004D01*
X0192771Y0073853D01*
X0192793Y0073702D01*
X0192811Y0073549D01*
X0192825Y0073397D01*
X0192835Y0073244D01*
X0192841Y0073090D01*
X0192843Y0072937D01*
X0192841Y0072784D01*
X0192835Y0072630D01*
X0192825Y0072477D01*
X0192811Y0072325D01*
X0192793Y0072172D01*
X0192771Y0072021D01*
X0192746Y0071870D01*
X0192716Y0071719D01*
X0192682Y0071569D01*
X0192645Y0071421D01*
X0192604Y0071273D01*
X0192559Y0071127D01*
X0192510Y0070981D01*
X0192457Y0070837D01*
X0192401Y0070695D01*
X0192341Y0070554D01*
X0192277Y0070414D01*
X0192210Y0070276D01*
X0192139Y0070140D01*
X0192064Y0070006D01*
X0191987Y0069874D01*
X0191905Y0069744D01*
X0191821Y0069616D01*
X0191733Y0069490D01*
X0191642Y0069367D01*
X0191548Y0069246D01*
X0191450Y0069128D01*
X0191350Y0069012D01*
X0191246Y0068899D01*
X0191140Y0068788D01*
X0191031Y0068680D01*
X0190919Y0068575D01*
X0190805Y0068474D01*
X0190687Y0068375D01*
X0190568Y0068279D01*
X0190446Y0068186D01*
X0190321Y0068097D01*
X0190194Y0068010D01*
X0190065Y0067928D01*
X0189934Y0067848D01*
X0189801Y0067772D01*
X0189666Y0067699D01*
X0189529Y0067630D01*
X0189390Y0067565D01*
X0189250Y0067503D01*
X0189108Y0067445D01*
X0188965Y0067390D01*
X0188820Y0067339D01*
X0188674Y0067292D01*
X0188527Y0067249D01*
X0188379Y0067210D01*
X0188230Y0067174D01*
X0188080Y0067143D01*
X0187929Y0067115D01*
X0187778Y0067091D01*
X0187625Y0067071D01*
X0187473Y0067055D01*
X0187320Y0067043D01*
X0187167Y0067035D01*
X0187014Y0067031D01*
X0186860Y0067031D01*
X0186707Y0067035D01*
X0186554Y0067043D01*
X0186401Y0067055D01*
X0186249Y0067071D01*
X0186096Y0067091D01*
X0185945Y0067115D01*
X0185794Y0067143D01*
X0185644Y0067174D01*
X0185495Y0067210D01*
X0185347Y0067249D01*
X0185200Y0067292D01*
X0185054Y0067339D01*
X0184909Y0067390D01*
X0184766Y0067445D01*
X0184624Y0067503D01*
X0184484Y0067565D01*
X0184345Y0067630D01*
X0184208Y0067699D01*
X0184073Y0067772D01*
X0183940Y0067848D01*
X0183809Y0067928D01*
X0183680Y0068010D01*
X0183553Y0068097D01*
X0183428Y0068186D01*
X0183306Y0068279D01*
X0183187Y0068375D01*
X0183069Y0068474D01*
X0182955Y0068575D01*
X0182843Y0068680D01*
X0182734Y0068788D01*
X0182628Y0068899D01*
X0182524Y0069012D01*
X0182424Y0069128D01*
X0182326Y0069246D01*
X0182232Y0069367D01*
X0182141Y0069490D01*
X0182053Y0069616D01*
X0181969Y0069744D01*
X0181887Y0069874D01*
X0181810Y0070006D01*
X0181735Y0070140D01*
X0181664Y0070276D01*
X0181597Y0070414D01*
X0181533Y0070554D01*
X0181473Y0070695D01*
X0181417Y0070837D01*
X0181364Y0070981D01*
X0181315Y0071127D01*
X0181270Y0071273D01*
X0181229Y0071421D01*
X0181192Y0071569D01*
X0181158Y0071719D01*
X0181128Y0071870D01*
X0181103Y0072021D01*
X0181081Y0072172D01*
X0181063Y0072325D01*
X0181049Y0072477D01*
X0181039Y0072630D01*
X0181033Y0072784D01*
X0181031Y0072937D01*
X0151504Y0072937D02*
X0151515Y0073807D01*
X0151547Y0074676D01*
X0151600Y0075544D01*
X0151675Y0076410D01*
X0151770Y0077274D01*
X0151888Y0078136D01*
X0152026Y0078995D01*
X0152185Y0079850D01*
X0152365Y0080700D01*
X0152566Y0081547D01*
X0152788Y0082387D01*
X0153030Y0083223D01*
X0153292Y0084052D01*
X0153575Y0084874D01*
X0153878Y0085689D01*
X0154201Y0086497D01*
X0154544Y0087296D01*
X0154906Y0088087D01*
X0155287Y0088868D01*
X0155688Y0089640D01*
X0156107Y0090402D01*
X0156545Y0091153D01*
X0157001Y0091894D01*
X0157476Y0092623D01*
X0157968Y0093340D01*
X0158477Y0094044D01*
X0159004Y0094737D01*
X0159547Y0095415D01*
X0160107Y0096081D01*
X0160683Y0096732D01*
X0161275Y0097369D01*
X0161882Y0097992D01*
X0162505Y0098599D01*
X0163142Y0099191D01*
X0163793Y0099767D01*
X0164459Y0100327D01*
X0165137Y0100870D01*
X0165830Y0101397D01*
X0166534Y0101906D01*
X0167251Y0102398D01*
X0167980Y0102873D01*
X0168721Y0103329D01*
X0169472Y0103767D01*
X0170234Y0104186D01*
X0171006Y0104587D01*
X0171787Y0104968D01*
X0172578Y0105330D01*
X0173377Y0105673D01*
X0174185Y0105996D01*
X0175000Y0106299D01*
X0175822Y0106582D01*
X0176651Y0106844D01*
X0177487Y0107086D01*
X0178327Y0107308D01*
X0179174Y0107509D01*
X0180024Y0107689D01*
X0180879Y0107848D01*
X0181738Y0107986D01*
X0182600Y0108104D01*
X0183464Y0108199D01*
X0184330Y0108274D01*
X0185198Y0108327D01*
X0186067Y0108359D01*
X0186937Y0108370D01*
X0187807Y0108359D01*
X0188676Y0108327D01*
X0189544Y0108274D01*
X0190410Y0108199D01*
X0191274Y0108104D01*
X0192136Y0107986D01*
X0192995Y0107848D01*
X0193850Y0107689D01*
X0194700Y0107509D01*
X0195547Y0107308D01*
X0196387Y0107086D01*
X0197223Y0106844D01*
X0198052Y0106582D01*
X0198874Y0106299D01*
X0199689Y0105996D01*
X0200497Y0105673D01*
X0201296Y0105330D01*
X0202087Y0104968D01*
X0202868Y0104587D01*
X0203640Y0104186D01*
X0204402Y0103767D01*
X0205153Y0103329D01*
X0205894Y0102873D01*
X0206623Y0102398D01*
X0207340Y0101906D01*
X0208044Y0101397D01*
X0208737Y0100870D01*
X0209415Y0100327D01*
X0210081Y0099767D01*
X0210732Y0099191D01*
X0211369Y0098599D01*
X0211992Y0097992D01*
X0212599Y0097369D01*
X0213191Y0096732D01*
X0213767Y0096081D01*
X0214327Y0095415D01*
X0214870Y0094737D01*
X0215397Y0094044D01*
X0215906Y0093340D01*
X0216398Y0092623D01*
X0216873Y0091894D01*
X0217329Y0091153D01*
X0217767Y0090402D01*
X0218186Y0089640D01*
X0218587Y0088868D01*
X0218968Y0088087D01*
X0219330Y0087296D01*
X0219673Y0086497D01*
X0219996Y0085689D01*
X0220299Y0084874D01*
X0220582Y0084052D01*
X0220844Y0083223D01*
X0221086Y0082387D01*
X0221308Y0081547D01*
X0221509Y0080700D01*
X0221689Y0079850D01*
X0221848Y0078995D01*
X0221986Y0078136D01*
X0222104Y0077274D01*
X0222199Y0076410D01*
X0222274Y0075544D01*
X0222327Y0074676D01*
X0222359Y0073807D01*
X0222370Y0072937D01*
X0222359Y0072067D01*
X0222327Y0071198D01*
X0222274Y0070330D01*
X0222199Y0069464D01*
X0222104Y0068600D01*
X0221986Y0067738D01*
X0221848Y0066879D01*
X0221689Y0066024D01*
X0221509Y0065174D01*
X0221308Y0064327D01*
X0221086Y0063487D01*
X0220844Y0062651D01*
X0220582Y0061822D01*
X0220299Y0061000D01*
X0219996Y0060185D01*
X0219673Y0059377D01*
X0219330Y0058578D01*
X0218968Y0057787D01*
X0218587Y0057006D01*
X0218186Y0056234D01*
X0217767Y0055472D01*
X0217329Y0054721D01*
X0216873Y0053980D01*
X0216398Y0053251D01*
X0215906Y0052534D01*
X0215397Y0051830D01*
X0214870Y0051137D01*
X0214327Y0050459D01*
X0213767Y0049793D01*
X0213191Y0049142D01*
X0212599Y0048505D01*
X0211992Y0047882D01*
X0211369Y0047275D01*
X0210732Y0046683D01*
X0210081Y0046107D01*
X0209415Y0045547D01*
X0208737Y0045004D01*
X0208044Y0044477D01*
X0207340Y0043968D01*
X0206623Y0043476D01*
X0205894Y0043001D01*
X0205153Y0042545D01*
X0204402Y0042107D01*
X0203640Y0041688D01*
X0202868Y0041287D01*
X0202087Y0040906D01*
X0201296Y0040544D01*
X0200497Y0040201D01*
X0199689Y0039878D01*
X0198874Y0039575D01*
X0198052Y0039292D01*
X0197223Y0039030D01*
X0196387Y0038788D01*
X0195547Y0038566D01*
X0194700Y0038365D01*
X0193850Y0038185D01*
X0192995Y0038026D01*
X0192136Y0037888D01*
X0191274Y0037770D01*
X0190410Y0037675D01*
X0189544Y0037600D01*
X0188676Y0037547D01*
X0187807Y0037515D01*
X0186937Y0037504D01*
X0186067Y0037515D01*
X0185198Y0037547D01*
X0184330Y0037600D01*
X0183464Y0037675D01*
X0182600Y0037770D01*
X0181738Y0037888D01*
X0180879Y0038026D01*
X0180024Y0038185D01*
X0179174Y0038365D01*
X0178327Y0038566D01*
X0177487Y0038788D01*
X0176651Y0039030D01*
X0175822Y0039292D01*
X0175000Y0039575D01*
X0174185Y0039878D01*
X0173377Y0040201D01*
X0172578Y0040544D01*
X0171787Y0040906D01*
X0171006Y0041287D01*
X0170234Y0041688D01*
X0169472Y0042107D01*
X0168721Y0042545D01*
X0167980Y0043001D01*
X0167251Y0043476D01*
X0166534Y0043968D01*
X0165830Y0044477D01*
X0165137Y0045004D01*
X0164459Y0045547D01*
X0163793Y0046107D01*
X0163142Y0046683D01*
X0162505Y0047275D01*
X0161882Y0047882D01*
X0161275Y0048505D01*
X0160683Y0049142D01*
X0160107Y0049793D01*
X0159547Y0050459D01*
X0159004Y0051137D01*
X0158477Y0051830D01*
X0157968Y0052534D01*
X0157476Y0053251D01*
X0157001Y0053980D01*
X0156545Y0054721D01*
X0156107Y0055472D01*
X0155688Y0056234D01*
X0155287Y0057006D01*
X0154906Y0057787D01*
X0154544Y0058578D01*
X0154201Y0059377D01*
X0153878Y0060185D01*
X0153575Y0061000D01*
X0153292Y0061822D01*
X0153030Y0062651D01*
X0152788Y0063487D01*
X0152566Y0064327D01*
X0152365Y0065174D01*
X0152185Y0066024D01*
X0152026Y0066879D01*
X0151888Y0067738D01*
X0151770Y0068600D01*
X0151675Y0069464D01*
X0151600Y0070330D01*
X0151547Y0071198D01*
X0151515Y0072067D01*
X0151504Y0072937D01*
X0041937Y0035937D02*
X0041937Y0025937D01*
X0021937Y0025937D01*
X0021937Y0035937D01*
X0041937Y0035937D01*
X0019937Y0030937D02*
X0015937Y0030937D01*
X0017937Y0028937D02*
X0017937Y0032937D01*
X0022701Y0050937D02*
X0022704Y0051188D01*
X0022713Y0051439D01*
X0022729Y0051690D01*
X0022750Y0051940D01*
X0022778Y0052190D01*
X0022812Y0052439D01*
X0022852Y0052687D01*
X0022898Y0052934D01*
X0022950Y0053180D01*
X0023008Y0053424D01*
X0023072Y0053667D01*
X0023142Y0053908D01*
X0023218Y0054148D01*
X0023299Y0054385D01*
X0023387Y0054621D01*
X0023480Y0054854D01*
X0023579Y0055085D01*
X0023684Y0055313D01*
X0023794Y0055539D01*
X0023910Y0055762D01*
X0024031Y0055982D01*
X0024157Y0056199D01*
X0024289Y0056413D01*
X0024426Y0056624D01*
X0024568Y0056831D01*
X0024715Y0057035D01*
X0024867Y0057235D01*
X0025024Y0057431D01*
X0025186Y0057623D01*
X0025353Y0057811D01*
X0025524Y0057995D01*
X0025699Y0058175D01*
X0025879Y0058350D01*
X0026063Y0058521D01*
X0026251Y0058688D01*
X0026443Y0058850D01*
X0026639Y0059007D01*
X0026839Y0059159D01*
X0027043Y0059306D01*
X0027250Y0059448D01*
X0027461Y0059585D01*
X0027675Y0059717D01*
X0027892Y0059843D01*
X0028112Y0059964D01*
X0028335Y0060080D01*
X0028561Y0060190D01*
X0028789Y0060295D01*
X0029020Y0060394D01*
X0029253Y0060487D01*
X0029489Y0060575D01*
X0029726Y0060656D01*
X0029966Y0060732D01*
X0030207Y0060802D01*
X0030450Y0060866D01*
X0030694Y0060924D01*
X0030940Y0060976D01*
X0031187Y0061022D01*
X0031435Y0061062D01*
X0031684Y0061096D01*
X0031934Y0061124D01*
X0032184Y0061145D01*
X0032435Y0061161D01*
X0032686Y0061170D01*
X0032937Y0061173D01*
X0033188Y0061170D01*
X0033439Y0061161D01*
X0033690Y0061145D01*
X0033940Y0061124D01*
X0034190Y0061096D01*
X0034439Y0061062D01*
X0034687Y0061022D01*
X0034934Y0060976D01*
X0035180Y0060924D01*
X0035424Y0060866D01*
X0035667Y0060802D01*
X0035908Y0060732D01*
X0036148Y0060656D01*
X0036385Y0060575D01*
X0036621Y0060487D01*
X0036854Y0060394D01*
X0037085Y0060295D01*
X0037313Y0060190D01*
X0037539Y0060080D01*
X0037762Y0059964D01*
X0037982Y0059843D01*
X0038199Y0059717D01*
X0038413Y0059585D01*
X0038624Y0059448D01*
X0038831Y0059306D01*
X0039035Y0059159D01*
X0039235Y0059007D01*
X0039431Y0058850D01*
X0039623Y0058688D01*
X0039811Y0058521D01*
X0039995Y0058350D01*
X0040175Y0058175D01*
X0040350Y0057995D01*
X0040521Y0057811D01*
X0040688Y0057623D01*
X0040850Y0057431D01*
X0041007Y0057235D01*
X0041159Y0057035D01*
X0041306Y0056831D01*
X0041448Y0056624D01*
X0041585Y0056413D01*
X0041717Y0056199D01*
X0041843Y0055982D01*
X0041964Y0055762D01*
X0042080Y0055539D01*
X0042190Y0055313D01*
X0042295Y0055085D01*
X0042394Y0054854D01*
X0042487Y0054621D01*
X0042575Y0054385D01*
X0042656Y0054148D01*
X0042732Y0053908D01*
X0042802Y0053667D01*
X0042866Y0053424D01*
X0042924Y0053180D01*
X0042976Y0052934D01*
X0043022Y0052687D01*
X0043062Y0052439D01*
X0043096Y0052190D01*
X0043124Y0051940D01*
X0043145Y0051690D01*
X0043161Y0051439D01*
X0043170Y0051188D01*
X0043173Y0050937D01*
X0043170Y0050686D01*
X0043161Y0050435D01*
X0043145Y0050184D01*
X0043124Y0049934D01*
X0043096Y0049684D01*
X0043062Y0049435D01*
X0043022Y0049187D01*
X0042976Y0048940D01*
X0042924Y0048694D01*
X0042866Y0048450D01*
X0042802Y0048207D01*
X0042732Y0047966D01*
X0042656Y0047726D01*
X0042575Y0047489D01*
X0042487Y0047253D01*
X0042394Y0047020D01*
X0042295Y0046789D01*
X0042190Y0046561D01*
X0042080Y0046335D01*
X0041964Y0046112D01*
X0041843Y0045892D01*
X0041717Y0045675D01*
X0041585Y0045461D01*
X0041448Y0045250D01*
X0041306Y0045043D01*
X0041159Y0044839D01*
X0041007Y0044639D01*
X0040850Y0044443D01*
X0040688Y0044251D01*
X0040521Y0044063D01*
X0040350Y0043879D01*
X0040175Y0043699D01*
X0039995Y0043524D01*
X0039811Y0043353D01*
X0039623Y0043186D01*
X0039431Y0043024D01*
X0039235Y0042867D01*
X0039035Y0042715D01*
X0038831Y0042568D01*
X0038624Y0042426D01*
X0038413Y0042289D01*
X0038199Y0042157D01*
X0037982Y0042031D01*
X0037762Y0041910D01*
X0037539Y0041794D01*
X0037313Y0041684D01*
X0037085Y0041579D01*
X0036854Y0041480D01*
X0036621Y0041387D01*
X0036385Y0041299D01*
X0036148Y0041218D01*
X0035908Y0041142D01*
X0035667Y0041072D01*
X0035424Y0041008D01*
X0035180Y0040950D01*
X0034934Y0040898D01*
X0034687Y0040852D01*
X0034439Y0040812D01*
X0034190Y0040778D01*
X0033940Y0040750D01*
X0033690Y0040729D01*
X0033439Y0040713D01*
X0033188Y0040704D01*
X0032937Y0040701D01*
X0032686Y0040704D01*
X0032435Y0040713D01*
X0032184Y0040729D01*
X0031934Y0040750D01*
X0031684Y0040778D01*
X0031435Y0040812D01*
X0031187Y0040852D01*
X0030940Y0040898D01*
X0030694Y0040950D01*
X0030450Y0041008D01*
X0030207Y0041072D01*
X0029966Y0041142D01*
X0029726Y0041218D01*
X0029489Y0041299D01*
X0029253Y0041387D01*
X0029020Y0041480D01*
X0028789Y0041579D01*
X0028561Y0041684D01*
X0028335Y0041794D01*
X0028112Y0041910D01*
X0027892Y0042031D01*
X0027675Y0042157D01*
X0027461Y0042289D01*
X0027250Y0042426D01*
X0027043Y0042568D01*
X0026839Y0042715D01*
X0026639Y0042867D01*
X0026443Y0043024D01*
X0026251Y0043186D01*
X0026063Y0043353D01*
X0025879Y0043524D01*
X0025699Y0043699D01*
X0025524Y0043879D01*
X0025353Y0044063D01*
X0025186Y0044251D01*
X0025024Y0044443D01*
X0024867Y0044639D01*
X0024715Y0044839D01*
X0024568Y0045043D01*
X0024426Y0045250D01*
X0024289Y0045461D01*
X0024157Y0045675D01*
X0024031Y0045892D01*
X0023910Y0046112D01*
X0023794Y0046335D01*
X0023684Y0046561D01*
X0023579Y0046789D01*
X0023480Y0047020D01*
X0023387Y0047253D01*
X0023299Y0047489D01*
X0023218Y0047726D01*
X0023142Y0047966D01*
X0023072Y0048207D01*
X0023008Y0048450D01*
X0022950Y0048694D01*
X0022898Y0048940D01*
X0022852Y0049187D01*
X0022812Y0049435D01*
X0022778Y0049684D01*
X0022750Y0049934D01*
X0022729Y0050184D01*
X0022713Y0050435D01*
X0022704Y0050686D01*
X0022701Y0050937D01*
X0022701Y0058024D02*
X0022701Y0061173D01*
X0021126Y0059598D02*
X0024276Y0059598D01*
D13*
X0044583Y0036691D02*
X0046835Y0036691D01*
X0047586Y0035940D01*
X0047586Y0032938D01*
X0046835Y0032187D01*
X0044583Y0032187D01*
X0044583Y0036691D01*
X0049187Y0035940D02*
X0049938Y0036691D01*
X0051439Y0036691D01*
X0052190Y0035940D01*
X0052190Y0035190D01*
X0049187Y0032187D01*
X0052190Y0032187D01*
X0056583Y0032187D02*
X0058835Y0032187D01*
X0059586Y0032938D01*
X0059586Y0035940D01*
X0058835Y0036691D01*
X0056583Y0036691D01*
X0056583Y0032187D01*
X0061187Y0032187D02*
X0064190Y0032187D01*
X0062688Y0032187D02*
X0062688Y0036691D01*
X0061187Y0035190D01*
X0155687Y0022791D02*
X0155687Y0018287D01*
X0158690Y0018287D01*
X0160291Y0018287D02*
X0163293Y0018287D01*
X0164895Y0018287D02*
X0167147Y0018287D01*
X0167897Y0019038D01*
X0167897Y0022040D01*
X0167147Y0022791D01*
X0164895Y0022791D01*
X0164895Y0018287D01*
X0161792Y0020539D02*
X0160291Y0020539D01*
X0160291Y0022791D02*
X0160291Y0018287D01*
X0160291Y0022791D02*
X0163293Y0022791D01*
X0169499Y0021290D02*
X0171000Y0022791D01*
X0171000Y0018287D01*
X0169499Y0018287D02*
X0172501Y0018287D01*
X0073796Y0085951D02*
X0070793Y0085951D01*
X0072295Y0085951D02*
X0072295Y0090455D01*
X0070793Y0088953D01*
X0069192Y0089704D02*
X0068441Y0090455D01*
X0066940Y0090455D01*
X0066189Y0089704D01*
X0066189Y0088953D01*
X0066940Y0088203D01*
X0068441Y0088203D01*
X0069192Y0087452D01*
X0069192Y0086701D01*
X0068441Y0085951D01*
X0066940Y0085951D01*
X0066189Y0086701D01*
D14*
X0061937Y0066937D02*
X0055937Y0066937D01*
X0055877Y0066935D01*
X0055816Y0066930D01*
X0055757Y0066921D01*
X0055698Y0066908D01*
X0055639Y0066892D01*
X0055582Y0066872D01*
X0055527Y0066849D01*
X0055472Y0066822D01*
X0055420Y0066793D01*
X0055369Y0066760D01*
X0055320Y0066724D01*
X0055274Y0066686D01*
X0055230Y0066644D01*
X0055188Y0066600D01*
X0055150Y0066554D01*
X0055114Y0066505D01*
X0055081Y0066454D01*
X0055052Y0066402D01*
X0055025Y0066347D01*
X0055002Y0066292D01*
X0054982Y0066235D01*
X0054966Y0066176D01*
X0054953Y0066117D01*
X0054944Y0066058D01*
X0054939Y0065997D01*
X0054937Y0065937D01*
X0054937Y0049937D01*
X0054939Y0049877D01*
X0054944Y0049816D01*
X0054953Y0049757D01*
X0054966Y0049698D01*
X0054982Y0049639D01*
X0055002Y0049582D01*
X0055025Y0049527D01*
X0055052Y0049472D01*
X0055081Y0049420D01*
X0055114Y0049369D01*
X0055150Y0049320D01*
X0055188Y0049274D01*
X0055230Y0049230D01*
X0055274Y0049188D01*
X0055320Y0049150D01*
X0055369Y0049114D01*
X0055420Y0049081D01*
X0055472Y0049052D01*
X0055527Y0049025D01*
X0055582Y0049002D01*
X0055639Y0048982D01*
X0055698Y0048966D01*
X0055757Y0048953D01*
X0055816Y0048944D01*
X0055877Y0048939D01*
X0055937Y0048937D01*
X0061937Y0048937D01*
X0061997Y0048939D01*
X0062058Y0048944D01*
X0062117Y0048953D01*
X0062176Y0048966D01*
X0062235Y0048982D01*
X0062292Y0049002D01*
X0062347Y0049025D01*
X0062402Y0049052D01*
X0062454Y0049081D01*
X0062505Y0049114D01*
X0062554Y0049150D01*
X0062600Y0049188D01*
X0062644Y0049230D01*
X0062686Y0049274D01*
X0062724Y0049320D01*
X0062760Y0049369D01*
X0062793Y0049420D01*
X0062822Y0049472D01*
X0062849Y0049527D01*
X0062872Y0049582D01*
X0062892Y0049639D01*
X0062908Y0049698D01*
X0062921Y0049757D01*
X0062930Y0049816D01*
X0062935Y0049877D01*
X0062937Y0049937D01*
X0062937Y0065937D01*
X0062935Y0065997D01*
X0062930Y0066058D01*
X0062921Y0066117D01*
X0062908Y0066176D01*
X0062892Y0066235D01*
X0062872Y0066292D01*
X0062849Y0066347D01*
X0062822Y0066402D01*
X0062793Y0066454D01*
X0062760Y0066505D01*
X0062724Y0066554D01*
X0062686Y0066600D01*
X0062644Y0066644D01*
X0062600Y0066686D01*
X0062554Y0066724D01*
X0062505Y0066760D01*
X0062454Y0066793D01*
X0062402Y0066822D01*
X0062347Y0066849D01*
X0062292Y0066872D01*
X0062235Y0066892D01*
X0062176Y0066908D01*
X0062117Y0066921D01*
X0062058Y0066930D01*
X0061997Y0066935D01*
X0061937Y0066937D01*
X0052937Y0065937D02*
X0052937Y0049937D01*
X0052935Y0049877D01*
X0052930Y0049816D01*
X0052921Y0049757D01*
X0052908Y0049698D01*
X0052892Y0049639D01*
X0052872Y0049582D01*
X0052849Y0049527D01*
X0052822Y0049472D01*
X0052793Y0049420D01*
X0052760Y0049369D01*
X0052724Y0049320D01*
X0052686Y0049274D01*
X0052644Y0049230D01*
X0052600Y0049188D01*
X0052554Y0049150D01*
X0052505Y0049114D01*
X0052454Y0049081D01*
X0052402Y0049052D01*
X0052347Y0049025D01*
X0052292Y0049002D01*
X0052235Y0048982D01*
X0052176Y0048966D01*
X0052117Y0048953D01*
X0052058Y0048944D01*
X0051997Y0048939D01*
X0051937Y0048937D01*
X0045937Y0048937D01*
X0045877Y0048939D01*
X0045816Y0048944D01*
X0045757Y0048953D01*
X0045698Y0048966D01*
X0045639Y0048982D01*
X0045582Y0049002D01*
X0045527Y0049025D01*
X0045472Y0049052D01*
X0045420Y0049081D01*
X0045369Y0049114D01*
X0045320Y0049150D01*
X0045274Y0049188D01*
X0045230Y0049230D01*
X0045188Y0049274D01*
X0045150Y0049320D01*
X0045114Y0049369D01*
X0045081Y0049420D01*
X0045052Y0049472D01*
X0045025Y0049527D01*
X0045002Y0049582D01*
X0044982Y0049639D01*
X0044966Y0049698D01*
X0044953Y0049757D01*
X0044944Y0049816D01*
X0044939Y0049877D01*
X0044937Y0049937D01*
X0044937Y0065937D01*
X0044939Y0065997D01*
X0044944Y0066058D01*
X0044953Y0066117D01*
X0044966Y0066176D01*
X0044982Y0066235D01*
X0045002Y0066292D01*
X0045025Y0066347D01*
X0045052Y0066402D01*
X0045081Y0066454D01*
X0045114Y0066505D01*
X0045150Y0066554D01*
X0045188Y0066600D01*
X0045230Y0066644D01*
X0045274Y0066686D01*
X0045320Y0066724D01*
X0045369Y0066760D01*
X0045420Y0066793D01*
X0045472Y0066822D01*
X0045527Y0066849D01*
X0045582Y0066872D01*
X0045639Y0066892D01*
X0045698Y0066908D01*
X0045757Y0066921D01*
X0045816Y0066930D01*
X0045877Y0066935D01*
X0045937Y0066937D01*
X0051937Y0066937D01*
X0051997Y0066935D01*
X0052058Y0066930D01*
X0052117Y0066921D01*
X0052176Y0066908D01*
X0052235Y0066892D01*
X0052292Y0066872D01*
X0052347Y0066849D01*
X0052402Y0066822D01*
X0052454Y0066793D01*
X0052505Y0066760D01*
X0052554Y0066724D01*
X0052600Y0066686D01*
X0052644Y0066644D01*
X0052686Y0066600D01*
X0052724Y0066554D01*
X0052760Y0066505D01*
X0052793Y0066454D01*
X0052822Y0066402D01*
X0052849Y0066347D01*
X0052872Y0066292D01*
X0052892Y0066235D01*
X0052908Y0066176D01*
X0052921Y0066117D01*
X0052930Y0066058D01*
X0052935Y0065997D01*
X0052937Y0065937D01*
X0048937Y0060437D02*
X0048937Y0057937D01*
X0046437Y0057937D01*
X0048937Y0057937D02*
X0051437Y0057937D01*
X0048937Y0057937D02*
X0051437Y0053937D01*
X0046437Y0053937D01*
X0048937Y0057937D01*
X0048937Y0051937D01*
X0056437Y0053937D02*
X0058937Y0057937D01*
X0056437Y0057937D01*
X0058937Y0057937D02*
X0061437Y0057937D01*
X0058937Y0057937D02*
X0058937Y0060437D01*
X0058937Y0057937D02*
X0061437Y0053937D01*
X0056437Y0053937D01*
X0058937Y0051937D02*
X0058937Y0057937D01*
X0176937Y0024937D02*
X0176940Y0025182D01*
X0176949Y0025428D01*
X0176964Y0025673D01*
X0176985Y0025917D01*
X0177012Y0026161D01*
X0177045Y0026404D01*
X0177084Y0026647D01*
X0177129Y0026888D01*
X0177180Y0027128D01*
X0177237Y0027367D01*
X0177299Y0027604D01*
X0177368Y0027840D01*
X0177442Y0028074D01*
X0177522Y0028306D01*
X0177607Y0028536D01*
X0177698Y0028764D01*
X0177795Y0028989D01*
X0177897Y0029213D01*
X0178005Y0029433D01*
X0178118Y0029651D01*
X0178236Y0029866D01*
X0178360Y0030078D01*
X0178488Y0030287D01*
X0178622Y0030493D01*
X0178761Y0030695D01*
X0178905Y0030894D01*
X0179054Y0031089D01*
X0179207Y0031281D01*
X0179365Y0031469D01*
X0179527Y0031653D01*
X0179695Y0031832D01*
X0179866Y0032008D01*
X0180042Y0032179D01*
X0180221Y0032347D01*
X0180405Y0032509D01*
X0180593Y0032667D01*
X0180785Y0032820D01*
X0180980Y0032969D01*
X0181179Y0033113D01*
X0181381Y0033252D01*
X0181587Y0033386D01*
X0181796Y0033514D01*
X0182008Y0033638D01*
X0182223Y0033756D01*
X0182441Y0033869D01*
X0182661Y0033977D01*
X0182885Y0034079D01*
X0183110Y0034176D01*
X0183338Y0034267D01*
X0183568Y0034352D01*
X0183800Y0034432D01*
X0184034Y0034506D01*
X0184270Y0034575D01*
X0184507Y0034637D01*
X0184746Y0034694D01*
X0184986Y0034745D01*
X0185227Y0034790D01*
X0185470Y0034829D01*
X0185713Y0034862D01*
X0185957Y0034889D01*
X0186201Y0034910D01*
X0186446Y0034925D01*
X0186692Y0034934D01*
X0186937Y0034937D01*
X0187182Y0034934D01*
X0187428Y0034925D01*
X0187673Y0034910D01*
X0187917Y0034889D01*
X0188161Y0034862D01*
X0188404Y0034829D01*
X0188647Y0034790D01*
X0188888Y0034745D01*
X0189128Y0034694D01*
X0189367Y0034637D01*
X0189604Y0034575D01*
X0189840Y0034506D01*
X0190074Y0034432D01*
X0190306Y0034352D01*
X0190536Y0034267D01*
X0190764Y0034176D01*
X0190989Y0034079D01*
X0191213Y0033977D01*
X0191433Y0033869D01*
X0191651Y0033756D01*
X0191866Y0033638D01*
X0192078Y0033514D01*
X0192287Y0033386D01*
X0192493Y0033252D01*
X0192695Y0033113D01*
X0192894Y0032969D01*
X0193089Y0032820D01*
X0193281Y0032667D01*
X0193469Y0032509D01*
X0193653Y0032347D01*
X0193832Y0032179D01*
X0194008Y0032008D01*
X0194179Y0031832D01*
X0194347Y0031653D01*
X0194509Y0031469D01*
X0194667Y0031281D01*
X0194820Y0031089D01*
X0194969Y0030894D01*
X0195113Y0030695D01*
X0195252Y0030493D01*
X0195386Y0030287D01*
X0195514Y0030078D01*
X0195638Y0029866D01*
X0195756Y0029651D01*
X0195869Y0029433D01*
X0195977Y0029213D01*
X0196079Y0028989D01*
X0196176Y0028764D01*
X0196267Y0028536D01*
X0196352Y0028306D01*
X0196432Y0028074D01*
X0196506Y0027840D01*
X0196575Y0027604D01*
X0196637Y0027367D01*
X0196694Y0027128D01*
X0196745Y0026888D01*
X0196790Y0026647D01*
X0196829Y0026404D01*
X0196862Y0026161D01*
X0196889Y0025917D01*
X0196910Y0025673D01*
X0196925Y0025428D01*
X0196934Y0025182D01*
X0196937Y0024937D01*
X0196934Y0024692D01*
X0196925Y0024446D01*
X0196910Y0024201D01*
X0196889Y0023957D01*
X0196862Y0023713D01*
X0196829Y0023470D01*
X0196790Y0023227D01*
X0196745Y0022986D01*
X0196694Y0022746D01*
X0196637Y0022507D01*
X0196575Y0022270D01*
X0196506Y0022034D01*
X0196432Y0021800D01*
X0196352Y0021568D01*
X0196267Y0021338D01*
X0196176Y0021110D01*
X0196079Y0020885D01*
X0195977Y0020661D01*
X0195869Y0020441D01*
X0195756Y0020223D01*
X0195638Y0020008D01*
X0195514Y0019796D01*
X0195386Y0019587D01*
X0195252Y0019381D01*
X0195113Y0019179D01*
X0194969Y0018980D01*
X0194820Y0018785D01*
X0194667Y0018593D01*
X0194509Y0018405D01*
X0194347Y0018221D01*
X0194179Y0018042D01*
X0194008Y0017866D01*
X0193832Y0017695D01*
X0193653Y0017527D01*
X0193469Y0017365D01*
X0193281Y0017207D01*
X0193089Y0017054D01*
X0192894Y0016905D01*
X0192695Y0016761D01*
X0192493Y0016622D01*
X0192287Y0016488D01*
X0192078Y0016360D01*
X0191866Y0016236D01*
X0191651Y0016118D01*
X0191433Y0016005D01*
X0191213Y0015897D01*
X0190989Y0015795D01*
X0190764Y0015698D01*
X0190536Y0015607D01*
X0190306Y0015522D01*
X0190074Y0015442D01*
X0189840Y0015368D01*
X0189604Y0015299D01*
X0189367Y0015237D01*
X0189128Y0015180D01*
X0188888Y0015129D01*
X0188647Y0015084D01*
X0188404Y0015045D01*
X0188161Y0015012D01*
X0187917Y0014985D01*
X0187673Y0014964D01*
X0187428Y0014949D01*
X0187182Y0014940D01*
X0186937Y0014937D01*
X0186692Y0014940D01*
X0186446Y0014949D01*
X0186201Y0014964D01*
X0185957Y0014985D01*
X0185713Y0015012D01*
X0185470Y0015045D01*
X0185227Y0015084D01*
X0184986Y0015129D01*
X0184746Y0015180D01*
X0184507Y0015237D01*
X0184270Y0015299D01*
X0184034Y0015368D01*
X0183800Y0015442D01*
X0183568Y0015522D01*
X0183338Y0015607D01*
X0183110Y0015698D01*
X0182885Y0015795D01*
X0182661Y0015897D01*
X0182441Y0016005D01*
X0182223Y0016118D01*
X0182008Y0016236D01*
X0181796Y0016360D01*
X0181587Y0016488D01*
X0181381Y0016622D01*
X0181179Y0016761D01*
X0180980Y0016905D01*
X0180785Y0017054D01*
X0180593Y0017207D01*
X0180405Y0017365D01*
X0180221Y0017527D01*
X0180042Y0017695D01*
X0179866Y0017866D01*
X0179695Y0018042D01*
X0179527Y0018221D01*
X0179365Y0018405D01*
X0179207Y0018593D01*
X0179054Y0018785D01*
X0178905Y0018980D01*
X0178761Y0019179D01*
X0178622Y0019381D01*
X0178488Y0019587D01*
X0178360Y0019796D01*
X0178236Y0020008D01*
X0178118Y0020223D01*
X0178005Y0020441D01*
X0177897Y0020661D01*
X0177795Y0020885D01*
X0177698Y0021110D01*
X0177607Y0021338D01*
X0177522Y0021568D01*
X0177442Y0021800D01*
X0177368Y0022034D01*
X0177299Y0022270D01*
X0177237Y0022507D01*
X0177180Y0022746D01*
X0177129Y0022986D01*
X0177084Y0023227D01*
X0177045Y0023470D01*
X0177012Y0023713D01*
X0176985Y0023957D01*
X0176964Y0024201D01*
X0176949Y0024446D01*
X0176940Y0024692D01*
X0176937Y0024937D01*
D15*
X0058937Y0064437D03*
X0048937Y0064437D03*
D16*
X0048937Y0068187D03*
X0058937Y0068187D03*
X0058937Y0047687D03*
X0048937Y0047687D03*
D17*
X0179437Y0034937D02*
X0194437Y0034937D01*
M02*
