G75*
%MOIN*%
%OFA0B0*%
%FSLAX25Y25*%
%IPPOS*%
%LPD*%
%AMOC8*
5,1,8,0,0,1.08239X$1,22.5*
%
%ADD10C,0.06299*%
%ADD11C,0.07087*%
%ADD12C,0.06299*%
%ADD13C,0.06000*%
%ADD14R,0.06299X0.06299*%
%ADD15C,0.05512*%
%ADD16OC8,0.05200*%
%ADD17C,0.03000*%
D10*
X0032937Y0084787D02*
X0032937Y0091087D01*
X0042937Y0091087D02*
X0042937Y0084787D01*
X0052937Y0084787D02*
X0052937Y0091087D01*
D11*
X0072937Y0076480D02*
X0072937Y0069394D01*
X0082937Y0069394D02*
X0082937Y0076480D01*
X0092937Y0076480D02*
X0092937Y0069394D01*
X0102937Y0069394D02*
X0102937Y0076480D01*
X0112937Y0076480D02*
X0112937Y0069394D01*
X0122937Y0069394D02*
X0122937Y0076480D01*
X0132937Y0076480D02*
X0132937Y0069394D01*
X0132937Y0046480D02*
X0132937Y0039394D01*
X0122937Y0039394D02*
X0122937Y0046480D01*
X0112937Y0046480D02*
X0112937Y0039394D01*
X0102937Y0039394D02*
X0102937Y0046480D01*
X0092937Y0046480D02*
X0092937Y0039394D01*
X0082937Y0039394D02*
X0082937Y0046480D01*
X0072937Y0046480D02*
X0072937Y0039394D01*
D12*
X0072937Y0028937D03*
X0082937Y0028937D03*
X0094937Y0028937D03*
X0104937Y0028937D03*
X0036937Y0030937D03*
X0036874Y0050937D03*
X0102937Y0085937D03*
X0112937Y0085937D03*
X0124937Y0085937D03*
X0134937Y0085937D03*
D13*
X0124937Y0099937D03*
X0112937Y0099937D03*
X0092937Y0099937D03*
X0058937Y0072937D03*
X0048937Y0072937D03*
X0048937Y0042937D03*
X0058937Y0042937D03*
X0116937Y0028937D03*
X0136937Y0028937D03*
X0144937Y0099937D03*
D14*
X0026937Y0030937D03*
X0029000Y0050937D03*
D15*
X0186937Y0053252D03*
X0186937Y0092622D03*
D16*
X0186937Y0029937D03*
X0186937Y0019937D03*
D17*
X0186937Y0017937D01*
X0185937Y0016937D01*
X0084937Y0016937D01*
X0072937Y0028937D01*
X0082937Y0028937D02*
X0082937Y0042937D01*
X0092937Y0042937D02*
X0092937Y0030937D01*
X0094937Y0028937D01*
X0094947Y0028937D01*
X0101597Y0022287D01*
X0110277Y0022287D01*
X0116927Y0028937D01*
X0116937Y0028937D01*
X0104937Y0028937D02*
X0102937Y0030937D01*
X0102937Y0042937D01*
X0112937Y0042937D01*
X0102937Y0042937D02*
X0102937Y0045027D01*
X0095440Y0052524D01*
X0080434Y0052524D01*
X0072937Y0045027D01*
X0072937Y0042937D01*
X0058937Y0042937D01*
X0048937Y0042937D02*
X0048937Y0049715D01*
X0056159Y0056937D01*
X0100937Y0056937D01*
X0105350Y0052524D01*
X0115440Y0052524D01*
X0122937Y0045027D01*
X0122937Y0042937D01*
X0132937Y0042937D02*
X0132937Y0045027D01*
X0120027Y0057937D01*
X0108937Y0057937D01*
X0104350Y0062524D01*
X0082937Y0062524D01*
X0082937Y0072937D01*
X0072937Y0072937D02*
X0072937Y0066937D01*
X0044884Y0066937D01*
X0031224Y0053277D01*
X0031224Y0053161D01*
X0029000Y0050937D01*
X0029000Y0060778D01*
X0052937Y0084715D01*
X0052937Y0087937D01*
X0042937Y0087937D02*
X0042937Y0083798D01*
X0022350Y0063211D01*
X0022350Y0045752D01*
X0026937Y0041165D01*
X0026937Y0030937D01*
X0036874Y0031000D02*
X0036937Y0030937D01*
X0036874Y0031000D02*
X0036874Y0050937D01*
X0039874Y0050937D01*
X0051461Y0062524D01*
X0082937Y0062524D01*
X0102937Y0072937D02*
X0102937Y0085937D01*
X0102937Y0089937D01*
X0092937Y0099937D01*
X0087437Y0103215D02*
X0087437Y0088524D01*
X0064663Y0088524D01*
X0049076Y0072937D01*
X0048937Y0072937D01*
X0058937Y0072937D02*
X0068524Y0082524D01*
X0099524Y0082524D01*
X0102937Y0085937D01*
X0112937Y0085937D02*
X0112937Y0072937D01*
X0112937Y0062937D01*
X0177252Y0062937D01*
X0186937Y0053252D01*
X0195193Y0049075D02*
X0195193Y0094799D01*
X0190055Y0099937D01*
X0144937Y0099937D01*
X0133715Y0099937D01*
X0128215Y0105437D01*
X0120558Y0105437D01*
X0115058Y0099937D01*
X0112937Y0099937D01*
X0117437Y0092437D02*
X0124937Y0099937D01*
X0124937Y0085937D01*
X0122937Y0083937D01*
X0122937Y0072937D01*
X0132937Y0072937D02*
X0132937Y0083937D01*
X0134937Y0085937D01*
X0180252Y0085937D01*
X0186937Y0092622D01*
X0117437Y0092437D02*
X0108659Y0092437D01*
X0095659Y0105437D01*
X0089659Y0105437D01*
X0087437Y0103215D01*
X0189055Y0042937D02*
X0195193Y0049075D01*
X0189055Y0042937D02*
X0132937Y0042937D01*
X0145937Y0029937D01*
X0186937Y0029937D01*
X0136937Y0028937D02*
X0132937Y0032937D01*
X0132937Y0042937D01*
M02*
